<?xml version="1.0" encoding="UTF-8"?>
<svg version="1.1" xmlns="http://www.w3.org/2000/svg" width="512" height="512">
<path d="M0 0 C16.5 0 33 0 50 0 C52.475 6.043125 54.95 12.08625 57.5 18.3125 C58.28310547 20.21684814 59.06621094 22.12119629 59.87304688 24.08325195 C60.48869624 25.59309257 61.10395727 27.10309162 61.71875 28.61328125 C62.04262695 29.39682983 62.36650391 30.18037842 62.70019531 30.9876709 C65 36.6577846 65 36.6577846 65 40 C66.10057739 40.40774658 66.10057739 40.40774658 67.22338867 40.82373047 C69.87445966 41.94681673 72.04635424 43.21120359 74.42578125 44.8203125 C75.22177734 45.35527344 76.01777344 45.89023438 76.83789062 46.44140625 C77.65451172 46.99699219 78.47113281 47.55257812 79.3125 48.125 C80.14845703 48.68832031 80.98441406 49.25164062 81.84570312 49.83203125 C83.89999052 51.21720789 85.95127038 52.60662219 88 54 C90.90125675 51.53832761 92.64548184 48.98312966 94.41796875 45.671875 C94.86978516 44.87265625 95.32160156 44.0734375 95.78710938 43.25 C96.7155839 41.59247226 97.59953787 39.90915903 98.43554688 38.203125 C99.85546875 35.796875 99.85546875 35.796875 104 32 C109.61 32 115.22 32 121 32 C121 47.84 121 63.68 121 80 C113.41 80 105.82 80 98 80 C100.33539994 86.6906282 100.33539994 86.6906282 102.69750977 93.37182617 C103.12761353 94.63216675 103.12761353 94.63216675 103.56640625 95.91796875 C103.86490479 96.77156982 104.16340332 97.6251709 104.47094727 98.50463867 C105.09609848 101.45326377 104.99668936 103.1548786 104 106 C102.26025391 107.81420898 102.26025391 107.81420898 99.9765625 109.49609375 C99.13029297 110.12966797 98.28402344 110.76324219 97.41210938 111.41601562 C96.49236328 112.08310547 95.57261719 112.75019531 94.625 113.4375 C93.67689453 114.14197266 92.72878906 114.84644531 91.75195312 115.57226562 C88.84428957 117.72831462 85.92358686 119.86561144 83 122 C80.59622869 123.76901524 78.19442519 125.5406751 75.79272461 127.3125 C74.26483561 128.43706275 72.7343935 129.55816495 71.20141602 130.67578125 C66.83594586 133.86630192 62.5379579 137.12524225 58.28515625 140.46484375 C57.33125 141.20927734 56.37734375 141.95371094 55.39453125 142.72070312 C53.53846043 144.17355856 51.69044492 145.63677759 49.8515625 147.11132812 C49.01496094 147.76423828 48.17835938 148.41714844 47.31640625 149.08984375 C46.57849854 149.67628662 45.84059082 150.26272949 45.08032227 150.86694336 C43 152 43 152 40.90209961 151.84204102 C37.97241173 150.54509666 36.14705247 148.32597351 34 146 C29.35761468 147.36494438 25.58111367 149.27667687 21.46484375 151.80859375 C20.86370255 152.1759816 20.26256134 152.54336945 19.64320374 152.92189026 C17.73777214 154.08811767 15.83758686 155.26258922 13.9375 156.4375 C12.65854721 157.22256604 11.37925318 158.00707644 10.09960938 158.79101562 C7.74514695 160.23410902 5.39318498 161.68098533 3.04272461 163.13061523 C2.03862549 163.74751221 1.03452637 164.36440918 0 165 C-0.91579834 165.5762915 -1.83159668 166.15258301 -2.77514648 166.74633789 C-5 168 -5 168 -7 168 C-7 173.28 -7 178.56 -7 184 C8.84 184 24.68 184 41 184 C41 189.61 41 195.22 41 201 C31.1 205.95 21.2 210.9 11 216 C14.46476087 222.23656957 17.436037 226.96699581 21.95703125 232.1796875 C36.86205299 250.36119709 43.49519605 265.40979046 43.3125 289.1875 C43.3198819 290.29986023 43.32726379 291.41222046 43.33486938 292.55828857 C43.28245619 310.91444045 43.28245619 310.91444045 38.44018555 316.49511719 C35.58772655 319.14781434 32.37919192 321.07221189 29 323 C27.60227886 324.03842468 26.21799657 325.09549741 24.85546875 326.1796875 C23.63482212 327.08085344 22.41217226 327.97931249 21.1875 328.875 C15.16345783 333.33655396 9.2712939 337.93230793 3.43652344 342.63793945 C-1.52146114 346.63245288 -6.51737352 350.5618353 -11.65112305 354.32885742 C-13.93522603 356.06508297 -15.57548239 357.64876626 -17.51342773 359.83349609 C-24.5771767 367.49172947 -32.23783453 369.04768788 -42.3748951 369.49892235 C-47.55551401 369.66105168 -52.73030015 369.66369186 -57.91259766 369.59887695 C-61.73590551 369.55294552 -65.5476828 369.62147144 -69.36967468 369.71810341 C-95.19741018 370.28175363 -95.19741018 370.28175363 -102.99621582 362.83055115 C-104.64335039 360.92698197 -106.09036933 358.97323403 -107.52929688 356.90991211 C-108.34462891 355.94964111 -109.15996094 354.98937012 -110 354 C-114.76068201 353.81513489 -119.07531478 356.08886735 -123.41015625 357.94140625 C-124.8261273 358.53070609 -126.2421443 359.11989549 -127.65820312 359.70898438 C-129.86683451 360.63677194 -132.07420242 361.56745018 -134.28051758 362.50073242 C-136.42485305 363.40510228 -138.57344864 364.29868989 -140.72265625 365.19140625 C-141.37798843 365.47262833 -142.03332062 365.7538504 -142.70851135 366.04359436 C-146.25348477 367.51110543 -149.1560655 368.52186984 -153 368 C-155.16207858 366.46245581 -157.00020031 364.96986339 -158.9375 363.1875 C-160.08783611 362.1709008 -161.24024991 361.15664868 -162.39453125 360.14453125 C-162.9870166 359.62197754 -163.57950195 359.09942383 -164.18994141 358.56103516 C-167.08768501 356.06195604 -170.10109937 353.71853342 -173.125 351.375 C-179.16224537 346.6760934 -185.1027616 341.87424806 -191 337 C-189.92203078 334.00167501 -188.37524918 332.33595894 -185.99609375 330.328125 C-177.77864077 323.36192312 -177.77864077 323.36192312 -174.73266602 313.37207031 C-174.66750259 310.22027386 -174.75380119 307.14407988 -175 304 C-175.85803223 303.5992627 -175.85803223 303.5992627 -176.73339844 303.19042969 C-179.09414795 301.95055306 -181.12570462 300.54258967 -183.265625 298.953125 C-184.07386719 298.355 -184.88210937 297.756875 -185.71484375 297.140625 C-186.96974609 296.20476562 -186.96974609 296.20476562 -188.25 295.25 C-189.07113281 294.6415625 -189.89226562 294.033125 -190.73828125 293.40625 C-191.55167969 292.80296875 -192.36507812 292.1996875 -193.203125 291.578125 C-194.01072266 290.98451172 -194.81832031 290.39089844 -195.65039062 289.77929688 C-197.18187573 288.61954382 -198.68331137 287.41865684 -200.14648438 286.17382812 C-200.81486328 285.61630859 -201.48324219 285.05878906 -202.171875 284.484375 C-202.74518555 283.98131836 -203.31849609 283.47826172 -203.90917969 282.95996094 C-207.97504489 281.09319518 -212.34151036 282.77419327 -216.39904785 284.16558838 C-217.56480347 284.61142273 -218.73055908 285.05725708 -219.93164062 285.51660156 C-227.93158777 288.35092808 -235.66921123 288.76695849 -244.09375 288.734375 C-245.58012578 288.74285485 -247.06649529 288.75250277 -248.55285645 288.76324463 C-251.63541355 288.77946504 -254.7172496 288.77708166 -257.79980469 288.76171875 C-261.73552984 288.7442995 -265.66862408 288.78189469 -269.60396576 288.83398056 C-272.65999471 288.8671265 -275.71539067 288.86765498 -278.77156067 288.85883331 C-280.22276685 288.85919109 -281.6740153 288.87035212 -283.12504578 288.89293671 C-294.36248859 289.04492652 -294.36248859 289.04492652 -298.4178772 286.45710754 C-300.16940978 284.7260383 -301.59458683 283.01592957 -303 281 C-303.62648438 280.31292969 -304.25296875 279.62585938 -304.8984375 278.91796875 C-305.62933594 278.06138672 -305.62933594 278.06138672 -306.375 277.1875 C-309.04676542 274.09040869 -311.75780378 271.035007 -314.5 268 C-317.76390848 264.38323655 -320.98790949 260.73610392 -324.1875 257.0625 C-326.27211164 254.69035571 -328.38428644 252.34443935 -330.5 250 C-333.76390848 246.38323655 -336.98790949 242.73610392 -340.1875 239.0625 C-342.27211164 236.69035571 -344.38428644 234.34443935 -346.5 232 C-347.2528125 231.16210938 -348.005625 230.32421875 -348.78125 229.4609375 C-350.21066955 227.87548976 -351.64762875 226.29679117 -353.09375 224.7265625 C-354.03734375 223.68628906 -354.03734375 223.68628906 -355 222.625 C-355.556875 222.01914062 -356.11375 221.41328125 -356.6875 220.7890625 C-358.17371702 218.76320716 -358.74516167 217.49930773 -359 215 C-357.63232422 213.60546875 -357.63232422 213.60546875 -355.6796875 212.1875 C-351.05036629 207.82885874 -350.67136632 203.34203237 -350.21679688 197.18017578 C-350.17707114 195.78701419 -350.14669839 194.39355895 -350.125 193 C-350.09563354 191.92440826 -350.09563354 191.92440826 -350.06567383 190.8270874 C-349.99129975 184.19546031 -350.22744403 178.37475595 -354.28808594 172.93457031 C-357.75808758 169.68729325 -361.38484231 166.75951687 -365.14193726 163.85617065 C-370.78107644 159.3508132 -374.8975335 155.27812099 -376.08935547 147.92919922 C-377.32294908 135.67913179 -376.27671566 123.20950085 -375 111 C-368.150824 109.99612666 -361.30054771 109.00003924 -354.44946289 108.00927734 C-352.12042806 107.67153896 -349.79164789 107.33203939 -347.46313477 106.99072266 C-344.11019744 106.49955994 -340.75638599 106.01480252 -337.40234375 105.53125 C-336.36665756 105.37813354 -335.33097137 105.22501709 -334.26390076 105.06726074 C-329.11767781 104.3316896 -324.19863241 103.82150618 -319 104 C-318.71890381 103.13213867 -318.43780762 102.26427734 -318.14819336 101.37011719 C-308.66627349 73.53928114 -308.66627349 73.53928114 -296.90380859 66.91064453 C-293.70090356 65.4033578 -290.46740048 64.06589166 -287.14453125 62.84667969 C-284.20301122 61.68534186 -281.62745446 60.02633315 -278.9375 58.375 C-271.45512439 54.57510597 -263.1529706 55.51082176 -255 56 C-255 50.72 -255 45.44 -255 40 C-246.70673099 38.70192311 -238.13854949 37.36867363 -230 40 C-223.25963891 45.28341843 -217.82788884 53.92896626 -215 62 C-215.16845703 64.18457031 -215.16845703 64.18457031 -216 66 C-217.485 67.11375 -217.485 67.11375 -219 68.25 C-222.1645509 71.14200584 -222.47083898 73.94372879 -222.77734375 78.13574219 C-222.92086287 81.4266357 -222.99217511 84.70572224 -223 88 C-221.865625 88.20625 -220.73125 88.4125 -219.5625 88.625 C-212.57175133 90.20532623 -205.87177895 92.55543861 -199.203125 95.15673828 C-197.77031929 95.70515483 -196.32758423 96.2285163 -194.875 96.72216797 C-189.06286169 98.72697041 -183.79554178 100.78936715 -180.67724609 106.36523438 C-177.79787332 113.06728512 -175 120.6381208 -175 128 C-173.25650269 127.89002686 -173.25650269 127.89002686 -171.4777832 127.77783203 C-130.92261593 125.43866914 -130.92261593 125.43866914 -115.60546875 139.03515625 C-115.01918701 139.6269165 -114.43290527 140.21867676 -113.82885742 140.82836914 C-112.01776795 142.24284681 -112.01776795 142.24284681 -109.55712891 141.84594727 C-106.92950307 140.97667826 -104.84935679 139.85167702 -102.48046875 138.4296875 C-97.33284226 135.76873127 -93.34103363 135.70490263 -87.63452148 135.97070312 C-78.69817607 136.38576672 -70.95149283 136.40045869 -63.87768555 130.40576172 C-62.9172937 129.46240967 -62.9172937 129.46240967 -61.9375 128.5 C-61.33139893 127.93168457 -60.72529785 127.36336914 -60.10083008 126.77783203 C-54.2664331 120.10323313 -55.02457837 111.39740994 -55 103 C-12.76371156 80 -12.76371156 80 8 80 C7.4946875 79.01257813 6.989375 78.02515625 6.46875 77.0078125 C5.81228987 75.71364824 5.15605133 74.41937155 4.5 73.125 C3.99919922 72.14853516 3.99919922 72.14853516 3.48828125 71.15234375 C1 66.2265625 1 66.2265625 1 64 C-6.92 64 -14.84 64 -23 64 C-23 56.08 -23 48.16 -23 40 C-17.72 40 -12.44 40 -7 40 C-6.89816406 38.67226562 -6.79632813 37.34453125 -6.69140625 35.9765625 C-5.96171738 28.67967379 -4.4167559 21.54988093 -2.9375 14.375 C-1.4834375 7.259375 -1.4834375 7.259375 0 0 Z " fill="#C74840" transform="translate(383,56)"/>
<path d="M0 0 C0.66 0 1.32 0 2 0 C2.45270264 1.07483643 2.45270264 1.07483643 2.91455078 2.17138672 C4.29587306 5.41588789 5.70986238 8.64511337 7.125 11.875 C7.599375 13.00292969 8.07375 14.13085938 8.5625 15.29296875 C9.03945312 16.36933594 9.51640625 17.44570312 10.0078125 18.5546875 C10.65194092 20.04718018 10.65194092 20.04718018 11.30908203 21.56982422 C13.96576988 25.38799789 17.23068208 25.65924983 21.60888672 26.50244141 C22.45725098 26.61765137 23.30561523 26.73286133 24.1796875 26.8515625 C25.1078125 26.98046875 26.0359375 27.109375 26.9921875 27.2421875 C27.94351563 27.36851562 28.89484375 27.49484375 29.875 27.625 C30.84953125 27.7590625 31.8240625 27.893125 32.828125 28.03125 C35.21810126 28.35928596 37.60866503 28.68204739 40 29 C38.59303049 32.27173045 36.95831522 34.15618117 34.26953125 36.46875 C26.06638475 43.27210599 26.06638475 43.27210599 21.09765625 52.296875 C21.38853259 55.3940935 22.05814275 58.03815954 23 61 C23.38061797 63.14129976 23.73514214 65.28741359 24.0625 67.4375 C24.23910156 68.38496094 24.41570312 69.33242188 24.59765625 70.30859375 C24.98783188 72.91860356 25.07171125 75.36580673 25 78 C21.68448205 76.85026394 18.75873332 75.32524189 15.75 73.546875 C14.9765625 73.093125 14.203125 72.639375 13.40625 72.171875 C11.79519829 71.2198899 10.19100874 70.25620014 8.59375 69.28125 C4.31969446 66.62645244 4.31969446 66.62645244 -0.48828125 66.3828125 C-1.31714844 66.91648437 -2.14601562 67.45015625 -3 68 C-4.44910527 68.79921828 -5.90127311 69.59289416 -7.35546875 70.3828125 C-9.79749509 71.76282738 -12.23427957 73.15172067 -14.66992188 74.54296875 C-15.45302734 74.98511719 -16.23613281 75.42726563 -17.04296875 75.8828125 C-18.11067505 76.49213623 -18.11067505 76.49213623 -19.19995117 77.11376953 C-21 78 -21 78 -23 78 C-22.54113118 71.08074123 -21.82503446 64.36184333 -20.40234375 57.5703125 C-19.41538251 51.83348424 -19.41538251 51.83348424 -21.65234375 46.69824219 C-22.40644531 45.98829102 -23.16054687 45.27833984 -23.9375 44.546875 C-24.74960938 43.763125 -25.56171875 42.979375 -26.3984375 42.171875 C-27.68621094 40.97304688 -27.68621094 40.97304688 -29 39.75 C-30.69151159 38.14484185 -32.37923151 36.53567527 -34.0625 34.921875 C-34.81660156 34.21643555 -35.57070312 33.51099609 -36.34765625 32.78417969 C-38 31 -38 31 -38 29 C-34.813827 28.49129467 -31.62588525 27.99463419 -28.4375 27.5 C-27.54224609 27.35691406 -26.64699219 27.21382813 -25.72460938 27.06640625 C-20.74996352 26.30107612 -16.03260643 25.83431748 -11 26 C-10.76539063 25.22398437 -10.53078125 24.44796875 -10.2890625 23.6484375 C-8.59108694 18.84265211 -6.49046146 14.25918276 -4.375 9.625 C-3.95476562 8.69816406 -3.53453125 7.77132812 -3.1015625 6.81640625 C-2.07035118 4.54305401 -1.03643137 2.27097594 0 0 Z " fill="#FDD903" transform="translate(231,233)"/>
<path d="M0 0 C4.0173208 2.0451815 6.60949207 4.20332508 9 8 C9.39440918 10.3455658 9.39440918 10.3455658 9.41992188 12.96459961 C9.43583374 13.94919662 9.45174561 14.93379364 9.46813965 15.94822693 C9.46834106 17.00558548 9.46854248 18.06294403 9.46875 19.15234375 C9.48017029 20.79076988 9.48017029 20.79076988 9.49182129 22.46229553 C9.50262229 24.77130854 9.50547541 27.08037041 9.50097656 29.3894043 C9.50000448 32.92123932 9.54162423 36.45090066 9.5859375 39.98242188 C9.59114466 42.22655797 9.59383269 44.47070162 9.59375 46.71484375 C9.6183429 48.29784523 9.6183429 48.29784523 9.64343262 49.91282654 C9.56654925 58.07382147 9.56654925 58.07382147 6.52539062 61.14282227 C5.69201172 61.75569092 4.85863281 62.36855957 4 63 C3.67 63.33 3.34 63.66 3 64 C-1.32386999 64.74171649 -5.34958982 64.98965877 -9.1953125 62.68359375 C-11.25217277 60.88081622 -13.12911474 58.99458016 -15 57 C-16.31201584 55.72866682 -17.62449204 54.45780851 -18.9375 53.1875 C-24.45426789 47.69586545 -23.32982461 41.1261893 -23.4050293 33.76220703 C-23.42653335 32.18125462 -23.46054632 30.60041881 -23.50756836 29.02001953 C-23.94373249 14.21527422 -23.94373249 14.21527422 -20.17578125 9.1328125 C-18.61450195 7.48095703 -18.61450195 7.48095703 -17 6 C-16.43458496 5.38737305 -15.86916992 4.77474609 -15.28662109 4.14355469 C-10.85373731 -0.59781386 -6.25541211 -1.21805054 0 0 Z " fill="#C74841" transform="translate(455,384)"/>
<path d="M0 0 C0.75152344 -0.03738281 1.50304687 -0.07476562 2.27734375 -0.11328125 C6.40781006 -0.17815768 8.96962465 0.11912136 12.234375 2.7734375 C16.63373528 7.32308649 15.96583949 11.12827963 16 17.1875 C16.020625 18.09048828 16.04125 18.99347656 16.0625 19.92382812 C16.09955432 26.22769449 15.33819887 29.67356743 10.875 34.33203125 C8.52810602 36.38124934 6.14138232 38.37792194 3.75 40.375 C2.95722656 41.13167969 2.16445313 41.88835937 1.34765625 42.66796875 C-4.42567068 47.6940546 -9.08256254 49.1148719 -16.5625 49.1875 C-17.70996704 49.20490234 -17.70996704 49.20490234 -18.88061523 49.22265625 C-24.59824312 49.02258617 -27.25933117 47.45228799 -31.25 43.375 C-33.34885045 39.17729911 -32.65102051 33.94545433 -32.25 29.375 C-29.9599526 23.60009787 -25.90094993 19.60650812 -21.703125 15.08203125 C-18.33297067 11.36305521 -15.22058496 7.45441283 -12.09765625 3.52734375 C-8.6828531 -0.45057704 -4.9243204 0.09103786 0 0 Z " fill="#C74841" transform="translate(320.25,455.625)"/>
<path d="M0 0 C1.87830067 1.48145496 3.51473173 3.0320912 5.15942383 4.76904297 C5.72983398 5.36434814 6.30024414 5.95965332 6.88793945 6.57299805 C9.22631709 9.20789378 10.83478773 11.20406843 11.74536133 14.63623047 C11.49983841 17.55522512 10.81384463 20.12984354 10.03442383 22.95654297 C9.60707762 25.34591563 9.23427401 27.74079126 8.86254883 30.1394043 C8.29891493 33.75335443 7.6646298 37.35366733 7.03442383 40.95654297 C7.70497803 40.55226074 8.37553223 40.14797852 9.06640625 39.73144531 C12.1073108 37.91242433 15.1640492 36.12187629 18.22192383 34.33154297 C19.27702148 33.69474609 20.33211914 33.05794922 21.41918945 32.40185547 C22.44077148 31.80888672 23.46235352 31.21591797 24.51489258 30.60498047 C25.45228271 30.04987793 26.38967285 29.49477539 27.35546875 28.92285156 C30.03442383 27.95654297 30.03442383 27.95654297 32.70068359 28.7253418 C33.85588501 29.33478638 33.85588501 29.33478638 35.03442383 29.95654297 C35.97801758 30.30330078 36.92161133 30.65005859 37.89379883 31.00732422 C41.06902983 32.39326964 43.46290323 33.61684559 46.03442383 35.95654297 C47.28205769 40.3467525 47.32374074 44.4216686 47.03442383 48.95654297 C41.05306152 47.26493894 36.18180848 44.23615838 30.95629883 40.97021484 C27.85036332 39.12977023 25.76481394 37.97802503 22.11254883 37.87060547 C17.70269941 39.42636453 13.80987955 41.65895724 9.78442383 44.01904297 C8.17717078 44.95109715 6.56789114 45.8796682 4.95629883 46.80419922 C3.89813965 47.42307007 3.89813965 47.42307007 2.81860352 48.05444336 C1.03442383 48.95654297 1.03442383 48.95654297 -0.96557617 48.95654297 C-1.18872591 44.35540798 -0.99735707 40.63693451 0.32348633 36.21435547 C1.82603901 30.75163571 3.17051059 25.60715821 2.03442383 19.95654297 C-1.99794301 13.26986793 -8.19450094 8.29214895 -14.265625 3.50268555 C-14.82660889 2.9924585 -15.38759277 2.48223145 -15.96557617 1.95654297 C-15.96557617 1.29654297 -15.96557617 0.63654297 -15.96557617 -0.04345703 C-10.88871827 -1.35361391 -4.8105206 -2.55374054 0 0 Z " fill="#AE3B34" transform="translate(200.965576171875,270.04345703125)"/>
<path d="M0 0 C0.66 0 1.32 0 2 0 C2.3403125 0.9590625 2.3403125 0.9590625 2.6875 1.9375 C3.85250896 4.27193661 3.85250896 4.27193661 6.625 4.75 C7.40875 4.8325 8.1925 4.915 9 5 C8.505 5.53625 8.01 6.0725 7.5 6.625 C5.62510456 9.59358445 5.76498575 11.55312427 6 15 C4.906875 14.814375 3.81375 14.62875 2.6875 14.4375 C-0.93624133 13.7421932 -0.93624133 13.7421932 -4 15 C-3.9071875 13.63875 -3.9071875 13.63875 -3.8125 12.25 C-4.01672076 8.71017358 -4.64551835 7.55068845 -7 5 C-5.824375 4.87625 -5.824375 4.87625 -4.625 4.75 C-1.85250896 4.27193661 -1.85250896 4.27193661 -0.6875 1.9375 C-0.460625 1.298125 -0.23375 0.65875 0 0 Z " fill="#F9CF07" transform="translate(287,321)"/>
<path d="M0 0 C0.66 0 1.32 0 2 0 C2.3403125 0.9590625 2.3403125 0.9590625 2.6875 1.9375 C3.85250896 4.27193661 3.85250896 4.27193661 6.625 4.75 C7.40875 4.8325 8.1925 4.915 9 5 C8.505 5.53625 8.01 6.0725 7.5 6.625 C5.62510456 9.59358445 5.76498575 11.55312427 6 15 C4.906875 14.814375 3.81375 14.62875 2.6875 14.4375 C-0.93624133 13.7421932 -0.93624133 13.7421932 -4 15 C-3.9071875 13.63875 -3.9071875 13.63875 -3.8125 12.25 C-4.01672076 8.71017358 -4.64551835 7.55068845 -7 5 C-5.824375 4.87625 -5.824375 4.87625 -4.625 4.75 C-1.85250896 4.27193661 -1.85250896 4.27193661 -0.6875 1.9375 C-0.460625 1.298125 -0.23375 0.65875 0 0 Z " fill="#F9CF07" transform="translate(319,297)"/>
<path d="M0 0 C0.66 0 1.32 0 2 0 C2.3403125 0.9590625 2.3403125 0.9590625 2.6875 1.9375 C3.85250896 4.27193661 3.85250896 4.27193661 6.625 4.75 C7.40875 4.8325 8.1925 4.915 9 5 C8.505 5.53625 8.01 6.0725 7.5 6.625 C5.62510456 9.59358445 5.76498575 11.55312427 6 15 C4.906875 14.814375 3.81375 14.62875 2.6875 14.4375 C-0.93624133 13.7421932 -0.93624133 13.7421932 -4 15 C-3.9071875 13.63875 -3.9071875 13.63875 -3.8125 12.25 C-4.01672076 8.71017358 -4.64551835 7.55068845 -7 5 C-5.824375 4.87625 -5.824375 4.87625 -4.625 4.75 C-1.85250896 4.27193661 -1.85250896 4.27193661 -0.6875 1.9375 C-0.460625 1.298125 -0.23375 0.65875 0 0 Z " fill="#F9CF07" transform="translate(319,249)"/>
<path d="M0 0 C0.66 0 1.32 0 2 0 C2.3403125 0.9590625 2.3403125 0.9590625 2.6875 1.9375 C3.85250896 4.27193661 3.85250896 4.27193661 6.625 4.75 C7.40875 4.8325 8.1925 4.915 9 5 C8.505 5.53625 8.01 6.0725 7.5 6.625 C5.62510456 9.59358445 5.76498575 11.55312427 6 15 C4.906875 14.814375 3.81375 14.62875 2.6875 14.4375 C-0.93624133 13.7421932 -0.93624133 13.7421932 -4 15 C-3.9071875 13.63875 -3.9071875 13.63875 -3.8125 12.25 C-4.01672076 8.71017358 -4.64551835 7.55068845 -7 5 C-5.824375 4.87625 -5.824375 4.87625 -4.625 4.75 C-1.85250896 4.27193661 -1.85250896 4.27193661 -0.6875 1.9375 C-0.460625 1.298125 -0.23375 0.65875 0 0 Z " fill="#F9CF07" transform="translate(287,225)"/>
<path d="M0 0 C0.66 0 1.32 0 2 0 C3.08754852 3.34964944 3.08735791 4.77612779 1.78515625 8.11328125 C1.21667969 9.16902344 0.64820313 10.22476563 0.0625 11.3125 C-0.50339844 12.38113281 -1.06929687 13.44976562 -1.65234375 14.55078125 C-2.09707031 15.35902344 -2.54179687 16.16726563 -3 17 C-4.32 17 -5.64 17 -7 17 C-5.24009216 11.08030998 -2.60305395 5.58365008 0 0 Z " fill="#B03E34" transform="translate(223,241)"/>
</svg>
