<?xml version="1.0" encoding="UTF-8"?>
<svg version="1.1" xmlns="http://www.w3.org/2000/svg" width="512" height="512">
<path d="M0 0 C1.47247962 1.12759652 2.93304096 2.27112773 4.375 3.4375 C5.365 4.18 6.355 4.9225 7.375 5.6875 C9.375 7.4375 9.375 7.4375 11.375 10.4375 C14.49146187 9.64713137 14.49146187 9.64713137 16.5625 7.25 C26.62203169 -2.80953169 39.079779 -8.84628772 53.41674805 -9.03100586 C54.78827026 -9.01565796 54.78827026 -9.01565796 56.1875 -9 C57.15018799 -8.99170166 58.11287598 -8.98340332 59.10473633 -8.97485352 C71.71106255 -8.67694941 81.23650294 -5.01119172 91.375 2.4375 C92.43654297 3.18773437 92.43654297 3.18773437 93.51953125 3.953125 C98.08249291 7.51709505 101.1792859 11.75686908 104.3125 16.5625 C104.70260254 17.16070557 105.09270508 17.75891113 105.49462891 18.37524414 C107.56270753 21.6940355 108.91173301 24.54017451 109.375 28.4375 C110.28121094 28.27894531 111.18742187 28.12039062 112.12109375 27.95703125 C134.78895967 24.75291161 155.67845714 28.5483854 174.55078125 41.640625 C189.92949064 53.80746009 201.13406788 70.85163086 204.375 90.4375 C204.37433522 92.12304762 204.32552465 93.80910611 204.234375 95.4921875 C203.96290203 104.04451283 203.96290203 104.04451283 205.375 112.4375 C208.37734691 115.52987231 210.87107037 116.58434315 214.8828125 118.08984375 C226.48339619 122.56657907 237.10587148 136.4378221 242.375 147.4375 C249.68118502 165.87058082 252.04634487 187.68064029 244.375 206.4375 C242.7140535 209.86757088 240.94220695 213.22821748 239.01757812 216.51782227 C237.0561023 219.88783426 236.375 221.41784621 236.375 225.4375 C237.73190948 227.93673984 237.73190948 227.93673984 239.5625 230.5 C243.14304258 235.96465873 246.03698558 241.33447614 248.375 247.4375 C248.76945312 248.46488281 249.16390625 249.49226563 249.5703125 250.55078125 C256.39531936 271.62239335 253.43729795 294.43026595 243.51855469 313.85717773 C240.66726266 319.17989782 237.32881636 323.87178349 233.375 328.4375 C232.77816406 329.23027344 232.18132812 330.02304687 231.56640625 330.83984375 C221.61263168 342.63888134 207.21155789 350.02998286 192.375 353.4375 C192.24544922 354.31148438 192.24544922 354.31148438 192.11328125 355.203125 C189.16611498 372.39943462 179.93723836 387.53505546 166.375 398.4375 C160.9713463 402.20848752 154.92381204 406.23367426 148.375 407.4375 C148.43300781 407.99695313 148.49101562 408.55640625 148.55078125 409.1328125 C149.15658267 419.8987691 145.3323539 430.26162226 138.31640625 438.4140625 C129.92953943 447.15530398 121.75803776 453.43668605 109.40625 454.6875 C107.14392148 455.25432112 107.14392148 455.25432112 106.3125 457.66796875 C106.003125 458.58191406 105.69375 459.49585938 105.375 460.4375 C97.0293558 474.12190189 85.34208462 482.37148354 70.09130859 486.8112793 C65.61976744 487.8421532 61.26195261 487.96961711 56.6875 487.9375 C55.73069336 487.93177979 54.77388672 487.92605957 53.78808594 487.92016602 C40.80541155 487.59657972 30.54121189 483.66074861 20.375 475.4375 C19.385 474.695 18.395 473.9525 17.375 473.1875 C15.375 471.4375 15.375 471.4375 13.375 468.4375 C10.38276984 469.75459276 8.69532105 471.06183132 6.625 473.5625 C3.01803879 477.30276195 -1.02381545 479.46413488 -5.625 481.75 C-6.30143555 482.08725098 -6.97787109 482.42450195 -7.67480469 482.77197266 C-20.10743857 488.74096403 -36.02658893 490.00805086 -49.3125 485.8125 C-51.10720174 485.07654317 -52.88018908 484.28497959 -54.625 483.4375 C-55.57503906 482.99019531 -56.52507812 482.54289062 -57.50390625 482.08203125 C-68.96402815 476.26621429 -76.07032847 468.28608829 -82.625 457.4375 C-82.625 456.7775 -82.625 456.1175 -82.625 455.4375 C-83.53378906 455.30794922 -83.53378906 455.30794922 -84.4609375 455.17578125 C-98.15853274 452.87879989 -108.17470201 445.66622675 -116.5 434.625 C-122.03869511 426.179472 -124.42574883 417.49134647 -123.625 407.4375 C-124.49382812 407.17324219 -125.36265625 406.90898437 -126.2578125 406.63671875 C-142.64192421 400.80154207 -154.57043565 388.34099905 -162 372.875 C-167.625 359.90625 -167.625 359.90625 -167.625 353.4375 C-168.24503906 353.31375 -168.86507812 353.19 -169.50390625 353.0625 C-183.58830654 349.78229033 -194.54979238 342.6290879 -204.625 332.4375 C-205.49253906 331.5815625 -206.36007813 330.725625 -207.25390625 329.84375 C-221.65650941 315.22759918 -227.9421236 295.5710491 -228.125 275.4375 C-227.9677737 258.12786675 -223.71162382 241.5448296 -212.74609375 227.78125 C-210.2851099 224.73470795 -210.2851099 224.73470795 -211.06640625 221.97265625 C-211.58074219 221.13605469 -212.09507812 220.29945313 -212.625 219.4375 C-213.2456888 218.25254865 -213.85831033 217.06335274 -214.46484375 215.87109375 C-214.80451172 215.22785156 -215.14417969 214.58460938 -215.49414062 213.921875 C-224.39882024 196.86135538 -226.658201 178.07367895 -222 159.1875 C-215.94063978 140.18024374 -204.01826041 125.23866572 -186.625 115.4375 C-184.6320583 114.42350622 -182.63374534 113.4198147 -180.625 112.4375 C-180.6156543 111.84960693 -180.60630859 111.26171387 -180.59667969 110.65600586 C-180.09050642 85.21087407 -174.41182374 65.93651128 -156.546875 47.265625 C-142.06256352 33.4250607 -123.38667339 27.2408232 -103.6875 27.3125 C-102.62853516 27.30863281 -101.56957031 27.30476563 -100.47851562 27.30078125 C-95.08679379 27.30750829 -89.93523662 27.4857364 -84.625 28.4375 C-84.295 27.179375 -83.965 25.92125 -83.625 24.625 C-79.1568712 11.30452213 -67.89051042 1.54385885 -55.625 -4.5625 C-38.15924576 -12.56454059 -15.8166298 -10.76087423 0 0 Z " fill="#46CFFD" transform="translate(243.625,16.5625)"/>
<path d="M0 0 C0.96268799 0.00829834 1.92537598 0.01659668 2.91723633 0.02514648 C15.52356255 0.32305059 25.04900294 3.98880828 35.1875 11.4375 C35.89519531 11.93765625 36.60289062 12.4378125 37.33203125 12.953125 C41.89499291 16.51709505 44.9917859 20.75686908 48.125 25.5625 C48.71015381 26.45980835 48.71015381 26.45980835 49.30712891 27.37524414 C51.37520753 30.6940355 52.72423301 33.54017451 53.1875 37.4375 C54.09371094 37.27894531 54.99992187 37.12039062 55.93359375 36.95703125 C78.60145967 33.75291161 99.49095714 37.5483854 118.36328125 50.640625 C133.74199064 62.80746009 144.94656788 79.85163086 148.1875 99.4375 C148.18683522 101.12304762 148.13802465 102.80910611 148.046875 104.4921875 C147.77540203 113.04451283 147.77540203 113.04451283 149.1875 121.4375 C152.18984691 124.52987231 154.68357037 125.58434315 158.6953125 127.08984375 C170.29589619 131.56657907 180.91837148 145.4378221 186.1875 156.4375 C193.49368502 174.87058082 195.85884487 196.68064029 188.1875 215.4375 C186.5265535 218.86757088 184.75470695 222.22821748 182.83007812 225.51782227 C180.8686023 228.88783426 180.1875 230.41784621 180.1875 234.4375 C181.54440948 236.93673984 181.54440948 236.93673984 183.375 239.5 C186.95554258 244.96465873 189.84948558 250.33447614 192.1875 256.4375 C192.58195313 257.46488281 192.97640625 258.49226563 193.3828125 259.55078125 C200.20781936 280.62239335 197.24979795 303.43026595 187.33105469 322.85717773 C184.47976266 328.17989782 181.14131636 332.87178349 177.1875 337.4375 C176.29224609 338.62666016 176.29224609 338.62666016 175.37890625 339.83984375 C165.42513168 351.63888134 151.02405789 359.02998286 136.1875 362.4375 C136.05794922 363.31148438 136.05794922 363.31148438 135.92578125 364.203125 C132.97861498 381.39943462 123.74973836 396.53505546 110.1875 407.4375 C104.7838463 411.20848752 98.73631204 415.23367426 92.1875 416.4375 C92.27451172 417.27667969 92.27451172 417.27667969 92.36328125 418.1328125 C92.96908267 428.8987691 89.1448539 439.26162226 82.12890625 447.4140625 C73.74203943 456.15530398 65.57053776 462.43668605 53.21875 463.6875 C50.95642148 464.25432112 50.95642148 464.25432112 50.125 466.66796875 C49.6609375 468.03888672 49.6609375 468.03888672 49.1875 469.4375 C40.8418558 483.12190189 29.15458462 491.37148354 13.90380859 495.8112793 C9.43226744 496.8421532 5.07445261 496.96961711 0.5 496.9375 C-0.45680664 496.93177979 -1.41361328 496.92605957 -2.39941406 496.92016602 C-15.38388915 496.59653484 -25.6435658 492.65919148 -35.8125 484.4375 C-37.2665625 483.3546875 -37.2665625 483.3546875 -38.75 482.25 C-43.60566716 477.98289856 -43.60566716 477.98289856 -44.08116722 474.43009186 C-44.18310375 471.79149264 -44.18309417 469.1687687 -44.15307617 466.52832031 C-44.15351425 465.52311844 -44.15395233 464.51791656 -44.15440369 463.48225403 C-44.15231373 460.15984675 -44.12897242 456.83794413 -44.10546875 453.515625 C-44.09987354 451.21205928 -44.09560309 448.90849 -44.09260559 446.60491943 C-44.08115095 440.5418309 -44.05167818 434.47895795 -44.01849365 428.41595459 C-43.98780627 422.22915564 -43.97410309 416.04232187 -43.95898438 409.85546875 C-43.92680929 397.71605111 -43.87560525 385.57679348 -43.8125 373.4375 C-43.00371902 373.3890242 -42.19493805 373.3405484 -41.36164856 373.29060364 C-38.2919097 373.10300263 -35.22268616 372.90863753 -32.15364075 372.71003723 C-30.19978732 372.58555177 -28.24546412 372.46850954 -26.2911377 372.35168457 C-8.29815714 371.17468075 9.19526232 367.43163152 26.1875 361.4375 C26.96883301 361.17179199 27.75016602 360.90608398 28.55517578 360.63232422 C47.83773684 354.16395712 47.83773684 354.16395712 61.1875 339.4375 C64.27902034 332.6031346 66.74838289 325.52489641 69.1875 318.4375 C69.44837402 317.68919922 69.70924805 316.94089844 69.97802734 316.16992188 C73.10130691 307.1109309 75.22919704 298.06298206 76.81025696 288.6197052 C77.17006075 286.5383793 77.56124921 284.46574309 77.96264648 282.39208984 C80.07150656 271.18590369 80.71156145 260.32588672 80.625 248.9375 C80.62162628 248.06898407 80.61825256 247.20046814 80.61477661 246.30563354 C80.45297094 217.38609528 76.86983025 172.78657235 56.11181641 150.28686523 C49.56814738 143.99806888 41.77613281 140.78970646 33.3125 137.875 C32.21478271 137.49005371 31.11706543 137.10510742 29.98608398 136.70849609 C9.92735433 129.79129036 -9.75421974 125.83297953 -30.90625 124.35546875 C-32.15116211 124.26599976 -33.39607422 124.17653076 -34.67871094 124.08435059 C-37.72312029 123.86595366 -40.76770239 123.65040351 -43.8125 123.4375 C-43.92830579 110.0944148 -44.01717113 96.75144898 -44.07156086 83.40796375 C-44.09766414 77.21214369 -44.13307664 71.01666722 -44.18969727 64.82104492 C-44.24398929 58.84287319 -44.27391503 52.86503214 -44.28688622 46.88663292 C-44.29613101 44.60481243 -44.31418387 42.32301021 -44.34115028 40.04133034 C-44.377402 36.84722283 -44.3824468 33.65448491 -44.38012695 30.46020508 C-44.40709152 29.04248055 -44.40709152 29.04248055 -44.43460083 27.59611511 C-44.39860305 23.02115324 -44.34346672 21.09884491 -41.39494324 17.42631531 C-40.54273697 16.77000626 -39.6905307 16.1136972 -38.8125 15.4375 C-38.18988281 14.8290625 -37.56726563 14.220625 -36.92578125 13.59375 C-26.53921617 4.04081378 -13.9880739 -0.15653233 0 0 Z " fill="#FCB547" transform="translate(299.8125,7.5625)"/>
<path d="M0 0 C0.96381592 0.31598145 1.92763184 0.63196289 2.9206543 0.95751953 C17.6456067 5.97776979 27.61545692 12.01493038 35.0625 25.9375 C36.57573601 29.25560558 37.85014788 32.62416908 39.0625 36.0625 C39.39789795 37.00407959 39.7332959 37.94565918 40.07885742 38.91577148 C43.82967393 49.74184995 46.67148851 60.73872357 49.0625 71.9375 C49.24184082 72.74815918 49.42118164 73.55881836 49.60595703 74.39404297 C58.15383276 114.73967686 53.68627824 171.68649669 31.0625 206.9375 C19.08751584 224.54777082 -8.21231841 229.91435347 -27.9375 233.9375 C-28.62328125 234.08171387 -29.3090625 234.22592773 -30.015625 234.37451172 C-44.44483932 237.38850879 -58.72225421 238.17169195 -73.4375 238.1875 C-74.18117828 238.18883942 -74.92485657 238.19017883 -75.69107056 238.19155884 C-87.24864228 238.18706661 -98.43701462 237.524624 -109.81494141 235.34326172 C-111.78067526 234.96747961 -113.75544242 234.63981427 -115.73046875 234.31640625 C-135.62615685 230.82327017 -163.80184117 225.07741159 -176.1875 207.75 C-179.45153926 202.42682853 -181.73090663 196.7626227 -183.9375 190.9375 C-184.55431641 189.36548828 -184.55431641 189.36548828 -185.18359375 187.76171875 C-204.38425785 136.85902359 -202.39130596 78.12436917 -181.875 27.9375 C-174.93918954 12.87949046 -164.47485467 6.47555389 -149.3515625 0.8515625 C-100.08657596 -16.80216437 -49.46341669 -16.26501478 0 0 Z " fill="#8654D8" transform="translate(328.9375,143.0625)"/>
<path d="M0 0 C8.33337069 4.9807545 10.27009654 13.42732796 13.25 22.125 C13.83069989 23.77175412 14.41360586 25.4177317 14.99853516 27.06298828 C15.94798659 29.73529788 16.89530979 32.40822717 17.83474731 35.08407593 C20.50938561 42.68984234 23.30741342 50.2459862 26.1328125 57.796875 C27.44709703 61.32567355 28.76025531 64.85488934 30.07312012 68.38421631 C30.9380831 70.70347688 31.80663145 73.02140358 32.67883301 75.33795166 C33.9101815 78.61410242 35.12477616 81.89602958 36.3359375 85.1796875 C36.707117 86.15532654 37.07829651 87.13096558 37.46072388 88.13616943 C39.48666432 93.68287652 40.52298445 98.08852687 40 104 C38.7578125 106.27734375 38.7578125 106.27734375 37.125 107.9375 C36.59132813 108.50339844 36.05765625 109.06929688 35.5078125 109.65234375 C32.64958683 112.2069755 29.96312975 112.4705126 26.1640625 112.39453125 C21.74837084 111.58950443 19.96031415 109.36663178 17 106 C16.01 102.7 15.02 99.4 14 96 C2.12 96 -9.76 96 -22 96 C-22.99 99.3 -23.98 102.6 -25 106 C-29.84871617 111.51422623 -29.84871617 111.51422623 -34.05859375 112.46484375 C-38.48015887 112.6738024 -41.61989851 111.80065552 -45 109 C-48.23455628 104.98468875 -48.32548576 102.06028637 -48 97 C-47.25523824 93.94875486 -46.24278641 91.01879881 -45.1875 88.0625 C-44.92646484 87.30259766 -44.66542969 86.54269531 -44.39648438 85.75976562 C-42.89252902 81.41129225 -41.30295121 77.09717256 -39.67651367 72.79321289 C-38.78558968 70.43166951 -37.9223894 68.06049949 -37.0625 65.6875 C-35 60 -35 60 -34.23925781 57.92333984 C-32.28404324 52.5743863 -30.36625942 47.21335873 -28.47236633 41.842453 C-27.19756304 38.23738474 -25.90913897 34.6372528 -24.61914062 31.03759766 C-23.95451559 29.17397078 -23.29536084 27.30838427 -22.64160156 25.44091797 C-21.68441937 22.71041471 -20.70746333 19.9876836 -19.7265625 17.265625 C-19.44197174 16.43943665 -19.15738098 15.61324829 -18.86416626 14.76202393 C-15.55126164 5.70103854 -10.66893294 -1.85880529 0 0 Z " fill="#FDFDFE" transform="translate(232,200)"/>
<path d="M0 0 C4.93857976 1.58740064 9.80124529 3.29219054 14.64379883 5.15429688 C40.32790353 14.99716008 65.56655749 18.47591986 93 20 C93 44.09 93 68.18 93 93 C85.1247 86.24974286 85.1247 86.24974286 81.89332581 83.02030945 C81.16008591 82.28988937 80.42684601 81.5594693 79.67138672 80.80691528 C78.50289185 79.63538406 78.50289185 79.63538406 77.31079102 78.44018555 C76.05104713 77.18307014 76.05104713 77.18307014 74.76585388 75.90055847 C72.48346886 73.62179823 70.2033195 71.34083175 67.92434049 69.05866599 C65.53422948 66.66600911 63.1416637 64.27580886 60.74949646 61.88520813 C56.74078581 57.87831057 52.73417499 53.86932244 48.72875977 49.85913086 C44.09362201 45.21852982 39.45486272 40.58157221 34.81424958 35.94644707 C30.82504169 31.96176831 26.83777455 27.9751554 22.8521418 23.98690063 C20.4734268 21.60662461 18.09403637 19.22703436 15.71289253 16.84918785 C13.06732494 14.20614292 10.42495529 11.55994307 7.78344727 8.9128418 C6.99028107 8.12169983 6.19711487 7.33055786 5.37991333 6.51544189 C4.6664122 5.79912094 3.95291107 5.08279999 3.2177887 4.34477234 C2.59268685 3.71929347 1.96758501 3.0938146 1.32354069 2.44938183 C0 1 0 1 0 0 Z " fill="#27A5FE" transform="translate(163,361)"/>
<path d="M0 0 C4.14305901 1.83065398 6.57626971 4.19478951 9 8 C9.57816716 11.07138829 9.53665887 14.09107191 9.50170898 17.20898438 C9.50711197 18.12827225 9.51251495 19.04756012 9.51808167 19.9947052 C9.53057074 23.02804942 9.51407648 26.06044487 9.49609375 29.09375 C9.49624873 31.20454966 9.4977376 33.31534961 9.50050354 35.42614746 C9.50188762 39.84786575 9.48932775 44.26925971 9.46655273 48.69091797 C9.43816832 54.35711773 9.44090543 60.02277861 9.45364285 65.68901825 C9.46059971 70.04706419 9.4528106 74.4049857 9.44038582 78.76301575 C9.43587141 80.85219343 9.43553442 82.94138447 9.43945122 85.03056335 C9.44236346 87.95099238 9.42585547 90.87068028 9.40405273 93.79101562 C9.40855438 94.65350418 9.41305603 95.51599274 9.41769409 96.40461731 C9.34705854 102.10268354 8.27161912 105.34977769 4.5 109.75 C2.10492849 111.74589293 -0.20504322 112.02760197 -3.25 112.4375 C-8.1843364 111.86182742 -10.79803186 109.71753928 -14 106 C-15.32517809 102.02446574 -15.18083621 98.19658837 -15.20874023 94.04980469 C-15.21852402 93.13402145 -15.2283078 92.21823822 -15.23838806 91.27470398 C-15.26833117 88.24044243 -15.28972439 85.20622491 -15.30859375 82.171875 C-15.31516558 81.13526985 -15.3217374 80.0986647 -15.32850838 79.03064728 C-15.36109708 73.54372014 -15.38554929 68.05681238 -15.4050293 62.56982422 C-15.42284407 58.03014881 -15.45766831 53.49109434 -15.50756836 48.95166016 C-15.56776368 43.46922498 -15.59850416 37.9873657 -15.60820198 32.50461578 C-15.61675866 30.41701813 -15.63558194 28.32943595 -15.6649456 26.24202728 C-15.70388227 23.31659476 -15.70489188 20.39340383 -15.69702148 17.46777344 C-15.71702209 16.60933334 -15.73702271 15.75089325 -15.75762939 14.86643982 C-15.689897 9.24394708 -14.37054931 6.36956974 -10.48330784 2.29605484 C-7.18386419 -0.58686656 -4.26020437 -0.28882741 0 0 Z " fill="#FEFEFE" transform="translate(311,200)"/>
<path d="M0 0 C7.14301243 3.98861643 10.58592677 10.84855114 14 18 C8.13450097 23.59268512 1.46979842 27.84047715 -6 31 C-9 30 -9 30 -10.28125 27.890625 C-10.6834375 27.01921875 -11.085625 26.1478125 -11.5 25.25 C-12.82707692 22.40683824 -14.01776065 19.97572711 -15.875 17.4375 C-17.68729011 13.51087143 -17.38084235 10.05711412 -16 6 C-12.11165584 0.36305137 -6.63074374 -1.85203532 0 0 Z " fill="#FCA81B" transform="translate(400,393)"/>
<path d="M0 0 C3.7087049 2.00002345 6.76055066 4.90981716 8 9 C8.46505468 14.10833502 7.32471366 16.81647739 4.625 21.125 C1.62633183 25.95980902 1.62633183 25.95980902 -1 31 C-5.43613466 29.6671703 -9.19986474 27.91262725 -13.1875 25.5625 C-14.21230469 24.96566406 -15.23710938 24.36882812 -16.29296875 23.75390625 C-20.73057714 20.87874584 -20.73057714 20.87874584 -22 19 C-21.60489984 12.42211624 -16.76262316 6.42316545 -12.1875 1.9375 C-8.00050327 -0.60753723 -4.7816743 -1.07780136 0 0 Z " fill="#0FA1F9" transform="translate(121,393)"/>
<path d="M0 0 C1.3354151 0.70605115 2.66605898 1.42118842 3.9921875 2.14453125 C7.55181782 3.82493331 11.30270001 4.48934219 15.16015625 5.16796875 C14.67969161 9.93702514 12.42368558 13.01215731 9.53515625 16.66796875 C9.0880127 17.24313232 8.64086914 17.8182959 8.18017578 18.41088867 C4.92250227 22.48677126 1.69050158 25.50885301 -2.83984375 28.16796875 C-2.83984375 27.50796875 -2.83984375 26.84796875 -2.83984375 26.16796875 C-3.72671875 25.89984375 -4.61359375 25.63171875 -5.52734375 25.35546875 C-9.71928664 23.85269677 -12.73624636 22.46184155 -15.65234375 19.04296875 C-17.70710787 14.06827668 -17.67338305 9.29812474 -15.71484375 4.29296875 C-11.62568575 -0.34141032 -5.88826378 -2.66284541 0 0 Z " fill="#FCA71B" transform="translate(335.83984375,465.83203125)"/>
<path d="M0 0 C2.90050197 1.88565365 5.42452259 3.84904518 7 7 C7.65929672 11.70926231 7.56504302 15.03942687 5.125 19.1875 C1.43442733 23.00644042 -3.38205223 25.47133734 -8 28 C-13.27131321 24.05010591 -17.26573663 19.62730932 -21 14.25 C-21.39759521 13.68321533 -21.79519043 13.11643066 -22.20483398 12.5324707 C-24.05373839 9.79191921 -25 8.37570362 -25 5 C-24.45472656 4.90203125 -23.90945312 4.8040625 -23.34765625 4.703125 C-19.03660404 3.84828388 -15.31926909 2.77445141 -11.375 0.8125 C-7.17943056 -1.1284069 -4.52728528 -1.45214811 0 0 Z " fill="#10A0F9" transform="translate(186,466)"/>
<path d="M0 0 C0.66 0 1.32 0 2 0 C3.33852796 3.62310328 4.66993718 7.24878144 6 10.875 C6.3815625 11.90753906 6.763125 12.94007813 7.15625 14.00390625 C7.5171875 14.99003906 7.878125 15.97617187 8.25 16.9921875 C8.58515625 17.90339355 8.9203125 18.81459961 9.265625 19.75341797 C10 22 10 22 10 24 C4.06 24 -1.88 24 -8 24 C-5.65868652 15.86701635 -2.89754422 7.94820431 0 0 Z " fill="#9160E1" transform="translate(227,248)"/>
</svg>
