<?xml version="1.0" encoding="UTF-8"?>
<svg version="1.1" xmlns="http://www.w3.org/2000/svg" width="512" height="512">
<path d="M0 0 C168.96 0 337.92 0 512 0 C512 168.96 512 337.92 512 512 C343.04 512 174.08 512 0 512 C0 343.04 0 174.08 0 0 Z " fill="#000000" transform="translate(0,0)"/>
<path d="M0 0 C168.96 0 337.92 0 512 0 C512 168.96 512 337.92 512 512 C343.04 512 174.08 512 0 512 C0 343.04 0 174.08 0 0 Z M14.2421875 16.8515625 C12.643098 18.86850453 11.28279781 20.76323424 10 23 C9.67245366 23.51947649 9.34490731 24.03895298 9.00743532 24.57417119 C4.69925431 32.50508082 5.44436803 41.18656923 5.49206543 49.94015503 C5.48745368 51.77974889 5.48109893 53.61933906 5.47315645 55.45892155 C5.45647736 60.50255327 5.46470316 65.54588176 5.47710133 70.58951449 C5.48615538 76.03340112 5.47218022 81.47723577 5.46118164 86.92111206 C5.44339497 97.58171681 5.44723731 108.24220891 5.4588322 118.90281807 C5.46786659 127.56813695 5.46909049 136.23342426 5.46473694 144.89874649 C5.46412401 146.13216224 5.46351107 147.36557799 5.46287957 148.63636998 C5.46160066 151.14207514 5.46030381 153.64778029 5.4589892 156.15348543 C5.44790788 178.98057633 5.45939964 201.80761302 5.48035959 224.63469368 C5.49933684 245.46075968 5.49764701 266.28672783 5.47851562 287.11279297 C5.45708246 310.52266326 5.44868604 333.93248246 5.46096468 357.34236157 C5.46223886 359.83944836 5.46349635 362.33653517 5.46473694 364.83362198 C5.46535404 366.06221244 5.46597114 367.29080289 5.46660694 368.55662336 C5.47005884 377.20932066 5.46423485 385.86198322 5.45481873 394.51467514 C5.44359228 405.06277115 5.4466523 415.61074811 5.4679417 426.15883051 C5.47844399 431.53943041 5.48258786 436.91983193 5.46934509 442.3004303 C5.4573983 447.22907853 5.46402163 452.15734509 5.4852553 457.08595885 C5.4897117 458.86581611 5.48747679 460.64570583 5.47775215 462.4255421 C5.41252148 475.3597213 6.44005599 487.31259007 16 497 C26.9956144 506.12843459 38.25549217 506.43808361 51.86422729 506.38768005 C53.69556985 506.39185547 55.52690983 506.39733413 57.35824502 506.40399987 C62.37902462 506.41844591 67.39963995 506.41421234 72.42042851 506.40683305 C77.83976991 506.40210162 83.25907577 506.41461103 88.67840576 506.42485046 C99.29086379 506.44204431 109.90326262 506.44287724 120.51573096 506.43763756 C129.14195424 506.43359569 137.76816003 506.43503963 146.39438248 506.44038582 C147.62224751 506.44113424 148.85011254 506.44188266 150.1151856 506.44265376 C152.60961675 506.44418525 155.1040479 506.44572359 157.59847905 506.44726873 C180.98951158 506.46099592 204.38051067 506.45555456 227.77154244 506.44408352 C249.16777543 506.43394122 270.56392007 506.44709157 291.96013997 506.47101771 C313.93357815 506.49540407 335.90697604 506.5050177 357.88042748 506.49836498 C370.2153329 506.49487172 382.5501718 506.49711199 394.88506699 506.51461601 C405.38558016 506.52933216 415.88597999 506.52998104 426.38649093 506.5125451 C431.74279201 506.50402794 437.09889056 506.50190321 442.45518112 506.51719666 C447.36161826 506.53103212 452.26767914 506.52629506 457.17409445 506.50695742 C458.94587912 506.50319363 460.71769384 506.5061303 462.48945175 506.51656907 C475.16677737 506.58593011 485.89458515 505.48745219 495.9921875 497.0546875 C503.31490109 489.56101561 506.31568065 480.56184614 506.26285553 470.20683765 C506.2669608 469.44934124 506.27106606 468.69184482 506.27529573 467.91139397 C506.28659248 465.37655763 506.2837267 462.84194012 506.28088379 460.30708313 C506.28605355 458.46993056 506.29208055 456.63278024 506.29889059 454.79563302 C506.31500809 449.74950253 506.31860847 444.70342898 506.32008553 439.6572758 C506.32379052 434.21402186 506.33888708 428.77079733 506.35235596 423.32756042 C506.37950676 411.4267264 506.39156931 399.52590586 506.40037727 387.62504601 C506.4059043 380.19334328 506.41437937 372.76164574 506.42338562 365.32994652 C506.44776794 344.75106413 506.46836779 324.1721859 506.4751358 303.59328938 C506.47557494 302.27649935 506.47601407 300.95970932 506.47646651 299.60301657 C506.47690306 298.28309198 506.47733962 296.96316739 506.4777894 295.60324508 C506.47867449 292.92861195 506.47956873 290.25397883 506.48046875 287.5793457 C506.48068753 286.91619517 506.48090631 286.25304465 506.48113173 285.56979865 C506.4883925 264.06858816 506.52023356 242.56751256 506.56684948 221.06635372 C506.61607056 198.32191882 506.64346914 175.57755764 506.64587164 152.8330676 C506.64770475 140.43936509 506.6591995 128.04583926 506.69551086 115.65218544 C506.7263204 105.0992911 506.73654939 94.54662803 506.72003466 83.99369726 C506.7122244 78.61085437 506.71406641 73.22847718 506.74214935 67.84569168 C506.76764489 62.91369392 506.76521851 57.98251137 506.74096793 53.0505146 C506.73705683 51.27056815 506.74319809 49.49056377 506.76065665 47.71069864 C506.85864224 37.0420724 506.01585725 29.22614404 500 20 C499.6216408 19.39279076 499.2432816 18.78558153 498.85345697 18.15997201 C494.32118862 11.85532649 486.2867858 8.05394098 479 6 C476.40774392 5.81805382 473.92632417 5.72915954 471.33712292 5.74552441 C470.58156993 5.74231793 469.82601694 5.73911145 469.04756841 5.73580781 C466.51333967 5.72750001 463.97934679 5.73343482 461.44511414 5.73930359 C459.61081229 5.73628326 457.77651171 5.73239437 455.94221336 5.72771102 C450.89942299 5.71740693 445.85670352 5.71961899 440.81390727 5.72389162 C435.37615412 5.72635448 429.93841824 5.71735011 424.50067139 5.70985413 C413.84637224 5.69709259 403.19209827 5.69531527 392.53779276 5.69765439 C383.87858905 5.69943618 375.219393 5.69769088 366.5601902 5.69342995 C365.32856589 5.69283476 364.09694159 5.69223957 362.82799533 5.69162634 C360.32607112 5.69041461 357.8241469 5.68920048 355.32222269 5.68798397 C334.52404819 5.67834284 313.72588494 5.67790677 292.92770936 5.68328788 C291.93548436 5.68354451 291.93548436 5.68354451 290.9232144 5.68380633 C289.58553399 5.68415298 288.24785357 5.68450151 286.91017315 5.68485192 C266.09805766 5.69020856 245.28598454 5.68228053 224.47387695 5.66381836 C201.0900596 5.64309915 177.70626673 5.63240664 154.32243949 5.63639385 C141.94173269 5.63830755 129.56106448 5.6358019 117.18036461 5.62167931 C106.63984794 5.60977764 96.09939363 5.60834694 85.55887612 5.62046947 C80.18059622 5.62636684 74.80243046 5.62743386 69.4241581 5.61546707 C64.49987794 5.60463774 59.57580761 5.60767653 54.6515374 5.62172876 C52.87094939 5.62438383 51.0903451 5.62198378 49.30977305 5.61399289 C35.93446038 5.55813758 24.01873489 6.55359925 14.2421875 16.8515625 Z " fill="#FEFEFE" transform="translate(0,0)"/>
<path d="M0 0 C0 5.28 0 10.56 0 16 C-1.711875 16.0825 -3.42375 16.165 -5.1875 16.25 C-8.72475458 16.59099498 -10.8669302 16.93210724 -14.0625 18.5625 C-16.72932769 21.57242741 -16.72932769 21.57242741 -18 29 C-10.08 29 -2.16 29 6 29 C6 25.7 6 22.4 6 19 C8.19098425 11.58361526 12.38121734 6.63062246 19.078125 2.81640625 C26.635356 -0.79955362 33.80335394 -0.29805986 42 0 C42 5.28 42 10.56 42 16 C39.4321875 16.0928125 39.4321875 16.0928125 36.8125 16.1875 C32.85980758 16.55885978 31.22822443 16.84480739 27.875 19.125 C25.43711928 22.42081933 25.43711928 22.42081933 25 29 C29.95 29 34.9 29 40 29 C40 33.95 40 38.9 40 44 C34.72 44 29.44 44 24 44 C24 63.14 24 82.28 24 102 C18.06 102 12.12 102 6 102 C6 82.86 6 63.72 6 44 C-1.92 44 -9.84 44 -18 44 C-18 63.47 -18 82.94 -18 103 C-25.651875 103.0825 -33.30375 103.165 -41.1875 103.25 C-44.79981567 103.30462402 -44.79981567 103.30462402 -48.48510742 103.36035156 C-50.4002188 103.37203726 -52.31534012 103.38222936 -54.23046875 103.390625 C-55.21970337 103.41108887 -56.20893799 103.43155273 -57.22814941 103.45263672 C-61.63719289 103.45487169 -64.25442721 103.44028645 -68.1105957 101.16308594 C-70.94841681 97.9142043 -71.1320427 95.22557857 -71.20532227 91.06958008 C-71.2352401 89.56836357 -71.2352401 89.56836357 -71.26576233 88.03681946 C-71.28247482 86.95861435 -71.29918732 85.88040924 -71.31640625 84.76953125 C-71.33718735 83.66397385 -71.35796844 82.55841644 -71.37937927 81.4193573 C-71.44482332 77.8838021 -71.50373603 74.34817194 -71.5625 70.8125 C-71.6056901 68.41730992 -71.64930454 66.02212745 -71.69335938 63.62695312 C-71.80049952 57.75137912 -71.90178168 51.87572964 -72 46 C-76.95 46 -81.9 46 -87 46 C-86.99830811 48.7229834 -86.99830811 48.7229834 -86.99658203 51.50097656 C-86.9998716 57.54416322 -87.0309179 63.58669173 -87.0802784 69.62964249 C-87.10917346 73.28842184 -87.12742305 76.94656839 -87.12011719 80.60546875 C-87.11345944 84.14620893 -87.13636649 87.68570578 -87.17855453 91.22618866 C-87.19488213 93.21324897 -87.18171728 95.2004827 -87.16775513 97.18756104 C-87.31960526 106.81328049 -89.43586012 114.927131 -96.00881958 122.23272705 C-104.11546378 129.90971951 -114.08234094 133.39754351 -125.1875 133.3125 C-126.29798706 133.30730347 -126.29798706 133.30730347 -127.4309082 133.30200195 C-136.14469221 133.13136527 -144.41982527 131.42176859 -152 127 C-151.54636829 125.41531323 -151.08688548 123.83230076 -150.625 122.25 C-150.36976563 121.36828125 -150.11453125 120.4865625 -149.8515625 119.578125 C-149.0790066 117.23919428 -148.16374324 115.16557438 -147 113 C-143.70934446 113.49359833 -140.63204343 114.10974143 -137.4375 115.0625 C-128.93821052 117.21587085 -119.80525278 117.11549692 -112 113 C-107.74575504 108.63667183 -106.86726611 105.28238097 -106.9375 99.3125 C-106.94652344 98.31863281 -106.95554688 97.32476562 -106.96484375 96.30078125 C-106.97644531 95.54152344 -106.98804688 94.78226562 -107 94 C-107.66 94.598125 -108.32 95.19625 -109 95.8125 C-116.79367304 101.49538659 -124.57477369 101.95226167 -134 101 C-137.39230314 100.15066032 -140.06846365 98.89186357 -143 97 C-143.68578125 96.56042969 -144.3715625 96.12085938 -145.078125 95.66796875 C-152.12562949 90.35544151 -157.60998545 80.66978386 -158.9375 71.875 C-158.958125 70.59625 -158.97875 69.3175 -159 68 C-159.05929688 67.10023438 -159.11859375 66.20046875 -159.1796875 65.2734375 C-159.62671758 55.09692923 -157.26874528 45.70832762 -150.703125 37.75 C-144.37921454 31.25203696 -138.17275784 27.82899748 -128.93408203 27.56958008 C-120.14162765 27.54107782 -112.93727186 28.31507759 -106.2421875 34.66796875 C-105.62730469 35.32732422 -105.62730469 35.32732422 -105 36 C-104.38125 35.030625 -103.7625 34.06125 -103.125 33.0625 C-101 30 -101 30 -99 29 C-96.15331706 28.87642655 -93.3321054 28.81156371 -90.484375 28.796875 C-89.21149628 28.78832489 -89.21149628 28.78832489 -87.91290283 28.77960205 C-86.11398568 28.77014602 -84.31505116 28.76361568 -82.51611328 28.75976562 C-79.7747533 28.75008739 -77.0341518 28.71908159 -74.29296875 28.6875 C-72.54427528 28.6809671 -70.79557645 28.67571776 -69.046875 28.671875 C-68.23103943 28.6595282 -67.41520386 28.6471814 -66.574646 28.63446045 C-61.65091363 28.65355412 -58.26385602 29.2602599 -54 32 C-52.75660024 34.48679952 -52.84172513 36.21797088 -52.79467773 39.00048828 C-52.7647599 40.56188034 -52.7647599 40.56188034 -52.73423767 42.15481567 C-52.71752518 43.28192963 -52.70081268 44.40904358 -52.68359375 45.5703125 C-52.66281265 46.72167694 -52.64203156 47.87304138 -52.62062073 49.05929565 C-52.55508335 52.7478014 -52.49622072 56.43638003 -52.4375 60.125 C-52.39431877 62.62110138 -52.35070462 65.1171953 -52.30664062 67.61328125 C-52.19939765 73.74211226 -52.09814199 79.87101677 -52 86 C-46.72 86.33 -41.44 86.66 -36 87 C-36.0314209 83.92751953 -36.0314209 83.92751953 -36.06347656 80.79296875 C-36.12993768 74.003747 -36.17401138 67.21451039 -36.20724869 60.42504883 C-36.2280691 56.31102198 -36.25628411 52.19733017 -36.30175781 48.08349609 C-36.34541523 44.10882299 -36.36917877 40.1344709 -36.37950897 36.15957642 C-36.38686487 34.64778596 -36.401229 33.13601186 -36.42292023 31.62435913 C-36.54937255 22.4416321 -36.4050376 15.47890249 -30.4296875 8.046875 C-20.90501409 0.10167005 -12.02633028 -0.4373211 0 0 Z " fill="#FBFBFB" transform="translate(193,191)"/>
<path d="M0 0 C0 5.28 0 10.56 0 16 C-1.711875 16.0825 -3.42375 16.165 -5.1875 16.25 C-8.72475458 16.59099498 -10.8669302 16.93210724 -14.0625 18.5625 C-16.72932769 21.57242741 -16.72932769 21.57242741 -18 29 C-10.08 29 -2.16 29 6 29 C6 26.03 6 23.06 6 20 C7.98902105 12.98608368 11.00286401 7.61362249 17.4375 3.75 C23.38882415 0.82654252 28.26381456 -0.29024308 34.875 -0.125 C38.401875 -0.063125 38.401875 -0.063125 42 0 C42 5.28 42 10.56 42 16 C40.288125 16.0825 38.57625 16.165 36.8125 16.25 C33.27524542 16.59099498 31.1330698 16.93210724 27.9375 18.5625 C25.25960943 21.93145911 24.77333818 24.78179177 24 29 C29.28 29 34.56 29 40 29 C40 33.95 40 38.9 40 44 C34.72 44 29.44 44 24 44 C24 63.47 24 82.94 24 103 C18.06 103 12.12 103 6 103 C6 83.53 6 64.06 6 44 C-1.92 44 -9.84 44 -18 44 C-18 63.47 -18 82.94 -18 103 C-25.321875 103.0825 -32.64375 103.165 -40.1875 103.25 C-42.49129639 103.28641602 -44.79509277 103.32283203 -47.16870117 103.36035156 C-49.00178089 103.37203779 -50.83487101 103.38222977 -52.66796875 103.390625 C-53.61401978 103.41108887 -54.5600708 103.43155273 -55.53479004 103.45263672 C-59.83979475 103.45491601 -62.32297724 103.39840576 -66.0949707 101.17871094 C-68.45011086 98.48522501 -68.75972538 96.52402782 -69 93 C-69.3403125 93.45890625 -69.680625 93.9178125 -70.03125 94.390625 C-73.72556516 99.06747078 -77.11957616 102.49673376 -83 104 C-91.17993937 104.90226178 -99.14284606 105.28302957 -106.234375 100.4921875 C-111.30200558 96.20936697 -114.60243516 91.6520491 -115.3359375 84.9140625 C-115.41797582 78.00643622 -115.43653313 73.43475309 -111 68 C-99.58521566 56.93437377 -84.91751544 56.79249206 -70 57 C-70.31008884 55.39536551 -70.62316287 53.79130769 -70.9375 52.1875 C-71.11152344 51.29417969 -71.28554688 50.40085938 -71.46484375 49.48046875 C-71.97741153 46.88602829 -71.97741153 46.88602829 -73 44 C-76.58885375 43.18435142 -79.94585805 42.83783844 -83.625 42.8125 C-84.56601562 42.79832031 -85.50703125 42.78414062 -86.4765625 42.76953125 C-89.24704023 42.82039293 -89.24704023 42.82039293 -92 45 C-92.33 46.98 -92.66 48.96 -93 51 C-98.61 51 -104.22 51 -110 51 C-110.80357143 39.08035714 -110.80357143 39.08035714 -107.625 35 C-99.18088236 27.09692422 -88.92724723 27.25578996 -77.9609375 27.6171875 C-72.36881165 27.9488354 -67.74786511 28.92728891 -63 32 C-62.34 32.42410156 -61.68 32.84820312 -61 33.28515625 C-55.69673935 37.25155328 -52.6946237 42.76809375 -51.62271118 49.29858398 C-51.46469207 51.66498733 -51.4201484 54.0034373 -51.42578125 56.375 C-51.41161667 57.22553955 -51.39745209 58.0760791 -51.38285828 58.95239258 C-51.34133887 61.63506152 -51.32577712 64.31705652 -51.3125 67 C-51.28344287 69.7111982 -51.24899684 72.42222778 -51.21000671 75.13330078 C-51.18750484 76.8125846 -51.17169424 78.49197382 -51.16316223 80.17138672 C-51.48602861 83.88948079 -51.48602861 83.88948079 -50 87 C-47.65012738 87.23527773 -45.29443961 87.41386417 -42.9375 87.5625 C-41.00197266 87.68818359 -41.00197266 87.68818359 -39.02734375 87.81640625 C-38.02832031 87.87699219 -37.02929688 87.93757813 -36 88 C-36.00888245 87.15554825 -36.01776489 86.3110965 -36.0269165 85.4410553 C-36.10731972 77.45304901 -36.16809454 69.46518013 -36.20724869 61.476861 C-36.22805557 57.37070914 -36.25624539 53.26489379 -36.30175781 49.15893555 C-36.34546408 45.19074163 -36.3691889 41.22286984 -36.37950897 37.25445366 C-36.3868562 35.74628064 -36.40120301 34.23812373 -36.42292023 32.73008919 C-36.66369068 15.30598919 -36.66369068 15.30598919 -30.4175415 8.19960022 C-21.69458214 -0.35121591 -11.50894497 -0.41850709 0 0 Z " fill="#FBFBFB" transform="translate(433,191)"/>
<path d="M0 0 C3.1416615 1.87857442 5.85648284 3.88920621 8.1875 6.75 C8.435 5.986875 8.6825 5.22375 8.9375 4.4375 C10.34913157 1.40249213 11.36019299 0.46995546 14.1875 -1.25 C16.47753906 -1.59057617 16.47753906 -1.59057617 18.953125 -1.54296875 C19.84257812 -1.53330078 20.73203125 -1.52363281 21.6484375 -1.51367188 C22.56882812 -1.48853516 23.48921875 -1.46339844 24.4375 -1.4375 C25.37335938 -1.42396484 26.30921875 -1.41042969 27.2734375 -1.39648438 C29.57837221 -1.36120476 31.88301005 -1.30739966 34.1875 -1.25 C34.1875 4.03 34.1875 9.31 34.1875 14.75 C30.2275 15.245 30.2275 15.245 26.1875 15.75 C26.17870064 16.82875648 26.17870064 16.82875648 26.16972351 17.92930603 C26.11157727 24.74027693 26.03937674 31.55097314 25.95178509 38.36162472 C25.90724892 41.8622344 25.86795731 45.36273219 25.84106445 48.86352539 C25.80983683 52.89758877 25.75505599 56.93104536 25.69921875 60.96484375 C25.69282883 62.20894516 25.6864389 63.45304657 25.67985535 64.73484802 C25.49816272 75.57118846 23.37760834 84.39307583 16.1875 92.75 C6.38983669 101.49791367 -5.67115838 103.60676795 -18.375 103.1484375 C-25.63692038 102.65615706 -32.71822429 100.81285047 -38.8125 96.75 C-38.18093005 91.69744036 -36.67790627 87.45406799 -34.8125 82.75 C-31.61887734 83.21735941 -28.64815089 83.8013591 -25.5625 84.765625 C-18.15068321 86.71122691 -9.12385839 87.35682197 -2.0625 83.9375 C2.35451376 80.96450997 4.60296033 78.9186175 6.1875 73.75 C6.42721089 70.85348171 6.42721089 70.85348171 6.3125 67.9375 C6.29445313 66.96167969 6.27640625 65.98585938 6.2578125 64.98046875 C6.23460937 64.24441406 6.21140625 63.50835937 6.1875 62.75 C5.75179687 63.15992188 5.31609375 63.56984375 4.8671875 63.9921875 C4.27164063 64.53101563 3.67609375 65.06984375 3.0625 65.625 C2.48242188 66.15867187 1.90234375 66.69234375 1.3046875 67.2421875 C-5.43114562 72.03929374 -13.92945563 71.63467031 -21.8125 70.75 C-31.2787779 67.79042806 -37.1779535 62.54487643 -42.34375 54.30859375 C-45.74787824 47.66108777 -46.26692927 41.39682025 -46.3125 34.0625 C-46.31886475 33.18376221 -46.32522949 32.30502441 -46.33178711 31.3996582 C-46.14280163 21.68105687 -43.24642931 13.14276542 -36.8125 5.75 C-26.62125706 -2.66181957 -12.32764941 -5.97982994 0 0 Z " fill="#FBFBFB" transform="translate(281.8125,221.25)"/>
<path d="M0 0 C4.71957516 2.08682708 7.27226193 4.62816463 9.65625 9.30078125 C11.94847677 18.37612805 12.01712932 28.11177392 7.1953125 36.30078125 C4.12086559 40.2960016 1.20641065 41.87158755 -3.734375 42.703125 C-9.23888582 43.04926755 -13.1483056 42.06096001 -17.65234375 38.8671875 C-21.99787735 34.84280188 -24.1877838 29.6223765 -24.58203125 23.75390625 C-24.95701845 9.6237833 -24.95701845 9.6237833 -20.34375 4.30078125 C-14.6781932 -1.67268625 -7.75082207 -2.31232858 0 0 Z " fill="#030303" transform="translate(77.34375,234.69921875)"/>
<path d="M0 0 C4.41854291 3.11306432 8.02390999 6.75922996 9.75 11.9375 C10.96114329 29.60827912 10.96114329 29.60827912 5.75 36.9375 C1.78037585 40.81030405 -1.51969589 42.08831401 -7 42.25 C-12.00011467 42.16993994 -15.51982272 41.36394783 -19.25 37.9375 C-25.55224117 29.80187958 -25.9694252 21.93646762 -25.25 11.9375 C-24.07061406 6.95703581 -21.72572129 3.942482 -17.625 0.9375 C-11.86669553 -2.24245918 -6.13126498 -2.00445201 0 0 Z " fill="#040404" transform="translate(279.25,235.0625)"/>
<path d="M0 0 C0.28948647 5.59673839 0.23291136 9.2027767 -3 14 C-7.10700073 18.05946599 -10.38870939 21.12333694 -16.3125 21.3125 C-19.52498518 21.25042299 -21.03126106 20.98502074 -24 19.5625 C-26.43521305 16.44238328 -27.15777657 14.17998958 -27.390625 10.25390625 C-26.76941199 6.66950716 -24.89679544 5.1972905 -22.0078125 3.15234375 C-15.06903451 -0.83002883 -7.75923864 -0.2100245 0 0 Z " fill="#060606" transform="translate(363,260)"/>
<path d="M0 0 C5.94 0 11.88 0 18 0 C18 5.94 18 11.88 18 18 C12.06 18 6.12 18 0 18 C0 12.06 0 6.12 0 0 Z " fill="#FFFFFF" transform="translate(122,191)"/>
<path d="M0 0 C0.33 0 0.66 0 1 0 C1 10.23 1 20.46 1 31 C-9.23 31 -19.46 31 -30 31 C-27.91491447 29.95745724 -25.82573886 28.92087122 -23.703125 27.95703125 C-13.00561994 22.96599784 -5.36953263 16.10421798 -1.1875 4.8046875 C-0.72581527 3.22085238 -0.35045654 1.61210008 0 0 Z " fill="#000000" transform="translate(511,481)"/>
<path d="M0 0 C1.04254276 2.08508553 2.07912878 4.17426114 3.04296875 6.296875 C8.03400216 16.99438006 14.89578202 24.63046737 26.1953125 28.8125 C27.77914762 29.27418473 29.38789992 29.64954346 31 30 C31 30.33 31 30.66 31 31 C20.77 31 10.54 31 0 31 C0 20.77 0 10.54 0 0 Z " fill="#000000" transform="translate(0,481)"/>
<path d="M0 0 C10.23 0 20.46 0 31 0 C31 10.23 31 20.46 31 31 C29.95745724 28.91491447 28.92087122 26.82573886 27.95703125 24.703125 C22.96599784 14.00561994 16.10421798 6.36953263 4.8046875 2.1875 C3.22085238 1.72581527 1.61210008 1.35045654 0 1 C0 0.67 0 0.34 0 0 Z " fill="#000000" transform="translate(481,0)"/>
<path d="M0 0 C10.23 0 20.46 0 31 0 C28.91491447 1.04254276 26.82573886 2.07912878 24.703125 3.04296875 C14.00561994 8.03400216 6.36953263 14.89578202 2.1875 26.1953125 C1.72581527 27.77914762 1.35045654 29.38789992 1 31 C0.67 31 0.34 31 0 31 C0 20.77 0 10.54 0 0 Z " fill="#000000" transform="translate(0,0)"/>
</svg>
