<?xml version="1.0" encoding="UTF-8"?>
<svg version="1.1" xmlns="http://www.w3.org/2000/svg" width="512" height="512">
<path d="M0 0 C2.3409061 -0.00543076 4.68180878 -0.01255874 7.02270508 -0.02124023 C13.33676656 -0.03936287 19.65056447 -0.03245188 25.96463013 -0.01972389 C31.92400104 -0.01057379 37.88334873 -0.01758691 43.84271908 -0.02343267 C56.36462298 -0.03479909 68.88640914 -0.02178698 81.40829372 -0.00023121 C92.11860886 0.01763622 102.82875049 0.01453099 113.5390625 -0.00390625 C126.0206207 -0.02538299 138.5020761 -0.03370082 150.98365021 -0.0214572 C157.57466463 -0.01516561 164.1655828 -0.0143169 170.7565918 -0.02760315 C176.95547272 -0.03922795 183.15402864 -0.03101529 189.35287476 -0.00802612 C191.61664289 -0.00277432 193.88043877 -0.00419162 196.14419556 -0.01307678 C211.76400743 -0.06869308 226.65014341 0.65022536 240.71875 8.26757812 C241.37770264 8.61264404 242.03665527 8.95770996 242.71557617 9.31323242 C263.24100544 20.33267373 278.12549003 37.62502635 285.47667694 59.73742676 C288.90702112 71.87071164 288.9730578 83.56861904 288.92382812 96.11132812 C288.92925889 98.45223423 288.93638686 100.7931369 288.94506836 103.1340332 C288.96319099 109.44809468 288.95628 115.7618926 288.94355202 122.07595825 C288.93440192 128.03532917 288.94141504 133.99467686 288.9472608 139.9540472 C288.95862721 152.4759511 288.9456151 164.99773727 288.92405933 177.51962185 C288.90619191 188.22993699 288.90929713 198.94007861 288.92773438 209.65039062 C288.94921112 222.13194883 288.95752894 234.61340423 288.94528532 247.09497833 C288.93899373 253.68599276 288.93814502 260.27691092 288.95143127 266.86791992 C288.96305608 273.06680084 288.95484342 279.26535676 288.93185425 285.46420288 C288.92660244 287.72797102 288.92801975 289.99176689 288.93690491 292.25552368 C288.99252121 307.87533556 288.27360276 322.76147154 280.65625 336.83007812 C280.31118408 337.48903076 279.96611816 338.1479834 279.6105957 338.8269043 C268.08283055 360.29916606 250.1035861 374.89845482 227.00500965 382.28550816 C215.8358274 385.33338515 204.64590258 384.94701625 193.15307617 384.92163086 C190.81261368 384.92734111 188.47215398 384.93430789 186.13169861 384.94242859 C179.80510913 384.96030378 173.47865879 384.95920206 167.15205169 384.9534862 C161.18502946 384.94999259 155.21802408 384.95797069 149.25100712 384.96484686 C136.70911131 384.97854017 124.16727806 384.97315685 111.62538371 384.96166164 C100.1847386 384.95173524 88.74425536 384.96466528 77.3036352 384.98859584 C65.51936029 385.01305699 53.73516055 385.02257738 41.9508608 385.01594311 C35.34973364 385.01246607 28.74871483 385.01492264 22.14760399 385.03219414 C15.93646474 385.04773735 9.72563282 385.043626 3.51450539 385.02488899 C1.24589723 385.02122333 -1.02273408 385.02425191 -3.2913208 385.03477478 C-18.9294199 385.10172757 -33.82022876 384.39435993 -47.90625 376.76757812 C-48.56520264 376.42251221 -49.22415527 376.07744629 -49.90307617 375.72192383 C-71.37533794 364.19415868 -85.9746267 346.21491423 -93.36168003 323.11633778 C-96.40955703 311.94715552 -96.02318812 300.7572307 -95.99780273 289.2644043 C-96.00351298 286.92394181 -96.01047976 284.5834821 -96.01860046 282.24302673 C-96.03647566 275.91643726 -96.03537394 269.58998691 -96.02965808 263.26337981 C-96.02616447 257.29635758 -96.03414256 251.32935221 -96.04101873 245.36233524 C-96.05471205 232.82043943 -96.04932872 220.27860619 -96.03783352 207.73671184 C-96.02790711 196.29606672 -96.04083715 184.85558348 -96.06476771 173.41496333 C-96.08922887 161.63068842 -96.09874925 149.84648868 -96.09211498 138.06218892 C-96.08863795 131.46106177 -96.09109452 124.86004296 -96.10836601 118.25893211 C-96.12390923 112.04779286 -96.11979788 105.83696095 -96.10106087 99.62583351 C-96.0973952 97.35722535 -96.10042378 95.08859404 -96.11094666 92.82000732 C-96.17789944 77.18190823 -95.47053181 62.29109936 -87.84375 48.20507812 C-87.49868408 47.54612549 -87.15361816 46.88717285 -86.7980957 46.20825195 C-75.7786544 25.68282269 -58.48630177 10.79833809 -36.37390137 3.44715118 C-24.24061649 0.016807 -12.54270909 -0.04922967 0 0 Z " fill="#2AB474" transform="translate(159.59375,63.482421875)"/>
<path d="M0 0 C2.31146685 -0.01034808 4.62278691 -0.02775926 6.93419647 -0.04687119 C10.60422641 -0.0753835 14.27367115 -0.08162701 17.94379044 -0.07092667 C19.94508521 -0.06905812 21.94637107 -0.08552963 23.94759369 -0.1026268 C32.62592929 -0.0369225 40.11079056 0.96386934 46.9799118 6.61069107 C47.5883493 7.35448013 48.1967868 8.0982692 48.8236618 8.86459732 C49.4527243 9.60580826 50.0817868 10.3470192 50.7299118 11.11069107 C53.72061184 15.45746833 54.57434008 19.11335421 54.58245087 24.3584938 C54.58865952 25.53820251 54.59486816 26.71791122 54.60126495 27.93336868 C54.59533577 29.84645576 54.59533577 29.84645576 54.5892868 31.79819107 C54.59144491 33.14469393 54.59426113 34.49119587 54.5976944 35.83769608 C54.60339522 39.43559368 54.59472543 43.03331085 54.58140945 46.63118362 C54.57364956 48.86812818 54.56908096 51.10505981 54.56526947 53.34201431 C54.52157991 75.35491344 54.13409212 97.29232343 52.48509979 119.25088882 C52.31643389 121.52453067 52.156798 123.79867578 51.99895477 126.07309341 C46.46969853 205.21962 46.46969853 205.21962 37.4564743 215.57162857 C31.47508452 220.54060413 27.06402807 223.16021187 19.09514618 222.81796646 C7.45105578 221.17577225 -1.55165997 208.9971301 -9.3013382 201.05209732 C-10.7001367 199.63320021 -12.09986904 198.21522306 -13.50055695 196.79819107 C-16.90334902 193.35167784 -20.29324168 189.89294125 -23.6763382 186.42709732 C-26.60373791 187.74783781 -28.66100303 189.1683545 -30.91284943 191.45001602 C-31.5294342 192.06963211 -32.14601898 192.6892482 -32.78128815 193.32764053 C-33.44629333 194.00612045 -34.11129852 194.68460037 -34.79645538 195.38364029 C-35.86070236 196.45708694 -35.86070236 196.45708694 -36.94644928 197.55221939 C-38.48620283 199.10627554 -40.02371053 200.66255936 -41.55923462 202.22079468 C-43.99269397 204.6890441 -46.43318658 207.15012971 -48.87586212 209.60925674 C-55.81984777 216.60213391 -62.75268996 223.60597916 -69.6763382 230.61899185 C-73.91287147 234.90920431 -78.15918645 239.18953295 -82.41160583 243.46399689 C-84.0276746 245.09245546 -85.63994187 246.72469601 -87.2482605 248.36080933 C-89.50258307 250.65372982 -91.76911308 252.9339098 -94.03864288 255.21176529 C-95.02400528 256.22341248 -95.02400528 256.22341248 -96.02927399 257.25549698 C-101.83467802 263.03678361 -107.67943196 267.00012717 -116.1138382 266.98959732 C-127.40815114 266.53627054 -134.09044298 259.62363219 -142.1763382 252.48959732 C-145.23207709 249.79493042 -148.36956448 247.22251629 -151.5513382 244.67709732 C-155.55855879 241.42673098 -159.21731652 238.00162573 -162.80524445 234.29819107 C-164.56641361 232.5370219 -166.386803 230.95532106 -168.3013382 229.36459732 C-177.58149277 221.36572642 -185.77330298 211.81353464 -193.38336945 202.24740982 C-195.13520755 200.09267879 -196.91362661 197.99952835 -198.75055695 195.91928482 C-199.28664581 195.30899429 -199.82273468 194.69870377 -200.37506866 194.06991959 C-201.41547355 192.88990213 -202.46223371 191.71544304 -203.51667023 190.54794693 C-208.65689362 184.69194184 -212.25560502 178.933047 -212.1763382 170.92709732 C-212.1866507 169.88553482 -212.1969632 168.84397232 -212.2075882 167.77084732 C-210.900154 159.54170269 -206.02955258 154.20674793 -200.24567413 148.5423317 C-199.13289093 147.42867233 -199.13289093 147.42867233 -197.99762726 146.2925148 C-195.56135657 143.85901425 -193.11126108 141.43996279 -190.6607132 139.02084732 C-188.96161847 137.32921872 -187.26340905 135.63670048 -185.56604767 133.94333267 C-181.10981551 129.50232724 -176.64169997 125.07346898 -172.1709671 120.64706802 C-167.60559603 116.12271301 -163.05161525 111.58692484 -158.4966507 107.05209732 C-149.5676332 98.16589852 -140.62639596 89.29210173 -131.6763382 80.42709732 C-133.59648485 76.22024594 -136.49010626 73.42942793 -139.7857132 70.26303482 C-141.02818704 69.04587914 -142.27036491 67.82842126 -143.5122757 66.61069107 C-145.46111416 64.71118411 -147.4129599 62.81501534 -149.37067413 60.92465591 C-167.62016856 43.26370537 -167.62016856 43.26370537 -168.3013382 33.30209732 C-167.80234864 26.37048151 -165.08401132 21.51098792 -160.2388382 16.61459732 C-151.67288121 9.81149244 -138.55083111 9.70322344 -128.0513382 8.42709732 C-126.67346532 8.25680444 -125.29561752 8.08630861 -123.91779327 7.91562271 C-121.13521067 7.57255793 -118.3520544 7.23472484 -115.56842804 6.90024185 C-112.18111397 6.48846073 -108.79789006 6.05413745 -105.41461945 5.61069107 C-70.46341563 1.1834247 -35.19451218 0.12429252 0 0 Z " fill="#2BB474" transform="translate(325.6763381958008,131.57290267944336)"/>
<path d="M0 0 C1.01283399 3.03850198 0.94213717 4.45193223 0.6875 7.5625 C0.7502066 18.32578488 8.99179679 25.403429 16.14857483 32.53105164 C18.21774288 34.56890683 20.29603098 36.59714921 22.375 38.625 C23.79389711 40.0237985 25.21187426 41.42353084 26.62890625 42.82421875 C30.07541948 46.22701082 33.53415607 49.61690349 37 53 C35.67925952 55.92739972 34.25874282 57.98466484 31.9770813 60.23651123 C31.04765717 61.1613884 31.04765717 61.1613884 30.09945679 62.10494995 C29.42097687 62.76995514 28.74249695 63.43496033 28.04345703 64.12011719 C27.32782593 64.82961517 26.61219482 65.53911316 25.87487793 66.27011108 C24.32082178 67.80986464 22.76453796 69.34737233 21.20630264 70.88289642 C18.73805322 73.31635577 16.27696761 75.75684839 13.81784058 78.19952393 C6.82496341 85.14350958 -0.17888184 92.07635176 -7.19189453 99 C-11.48210699 103.23653327 -15.76243563 107.48284826 -20.03689957 111.73526764 C-21.66535814 113.35133641 -23.29759869 114.96360367 -24.93371201 116.5719223 C-27.2266325 118.82624488 -29.50681248 121.09277488 -31.78466797 123.36230469 C-32.45909943 124.01921295 -33.13353088 124.67612122 -33.82839966 125.35293579 C-39.60968628 131.15833982 -43.57302985 137.00309377 -43.5625 145.4375 C-43.10917322 156.73181295 -36.19653487 163.41410478 -29.0625 171.5 C-26.3678331 174.55573889 -23.79541897 177.69322629 -21.25 180.875 C-18.00200149 184.87930141 -14.57988292 188.53599893 -10.87890625 192.12109375 C-9.07548125 193.92451875 -7.44723502 195.79394114 -5.8125 197.75 C2.78335245 207.70718654 13.31335489 216.15664852 23.35400391 224.61132812 C24.91271021 225.92635652 26.46249362 227.25194006 28.01171875 228.578125 C36.77235518 235.95807536 42.86707056 240.51599837 54.59375 240.6640625 C63.02440662 239.02047119 69.06302805 233.51669688 74.90649414 227.54760742 C75.63932617 226.8153595 76.3721582 226.08311157 77.12719727 225.32867432 C79.52280068 222.93030666 81.90395907 220.51813267 84.28515625 218.10546875 C85.95293428 216.43022248 87.62160354 214.75586305 89.29112244 213.08235168 C93.66471888 208.6935451 98.02616462 204.29285661 102.38513184 199.88952637 C106.84253328 195.39107286 111.31140052 190.90404136 115.77929688 186.41601562 C124.53074741 177.6217757 133.26939538 168.81493196 142 160 C146.20685138 161.92014666 148.9976694 164.81376807 152.1640625 168.109375 C153.38121818 169.35184885 154.59867606 170.59402671 155.81640625 171.8359375 C157.71591321 173.78477596 159.61208198 175.7366217 161.50244141 177.69433594 C172.81006668 190.16690511 172.81006668 190.16690511 187.8203125 196.5859375 C188.91085937 196.51632812 190.00140625 196.44671875 191.125 196.375 C192.24132812 196.32085937 193.35765625 196.26671875 194.5078125 196.2109375 C195.33023437 196.14132812 196.15265625 196.07171875 197 196 C196.14974747 196.97199844 195.29949493 197.94399689 194.42347717 198.94544983 C191.50128587 202.35455575 188.76754645 205.8763009 186.05831909 209.45562363 C176.08322237 222.60295299 165.48167243 235.18283519 154.4375 247.4375 C153.9717733 247.95543688 153.5060466 248.47337376 153.02620697 249.00700569 C128.41191402 276.2836524 105.53115282 295.0341405 67.78160739 297.07193446 C57.16925894 297.56262417 46.60442425 297.28111881 36 296.75 C34.95870005 296.70021822 34.95870005 296.70021822 33.89636374 296.64943075 C-27.00819991 293.70218393 -27.00819991 293.70218393 -46.3125 283.25 C-46.97145264 282.90493408 -47.63040527 282.55986816 -48.30932617 282.2043457 C-68.46719828 271.38223399 -84.06720982 253.99437965 -91 232 C-97.39816521 209.27280708 -98.81167344 185.04363411 -100.0625 161.5625 C-100.1203492 160.52306519 -100.1203492 160.52306519 -100.17936707 159.4626317 C-102.13165271 123.59592113 -99.15001548 94.21577854 -74.60035014 66.53075051 C-65.9001057 56.87862331 -56.63198496 47.90226849 -47 39.1875 C-46.43859393 38.67846587 -45.87718785 38.16943173 -45.29876947 37.64497232 C-30.71250781 24.44783141 -15.64710341 11.92552088 0 0 Z " fill="#15407C" transform="translate(158,157)"/>
<path d="M0 0 C2.31146685 -0.01034808 4.62278691 -0.02775926 6.93419647 -0.04687119 C10.60422641 -0.0753835 14.27367115 -0.08162701 17.94379044 -0.07092667 C19.94508521 -0.06905812 21.94637107 -0.08552963 23.94759369 -0.1026268 C32.62592929 -0.0369225 40.11079056 0.96386934 46.9799118 6.61069107 C47.5883493 7.35448013 48.1967868 8.0982692 48.8236618 8.86459732 C49.4527243 9.60580826 50.0817868 10.3470192 50.7299118 11.11069107 C53.72061184 15.45746833 54.57434008 19.11335421 54.58245087 24.3584938 C54.58865952 25.53820251 54.59486816 26.71791122 54.60126495 27.93336868 C54.59533577 29.84645576 54.59533577 29.84645576 54.5892868 31.79819107 C54.59144491 33.14469393 54.59426113 34.49119587 54.5976944 35.83769608 C54.60339522 39.43559368 54.59472543 43.03331085 54.58140945 46.63118362 C54.57364956 48.86812818 54.56908096 51.10505981 54.56526947 53.34201431 C54.52157991 75.35491344 54.13409212 97.29232343 52.48509979 119.25088882 C52.31643389 121.52453067 52.156798 123.79867578 51.99895477 126.07309341 C46.46969853 205.21962 46.46969853 205.21962 37.4564743 215.57162857 C31.47508452 220.54060413 27.06402807 223.16021187 19.09514618 222.81796646 C7.45105578 221.17577225 -1.55165997 208.9971301 -9.3013382 201.05209732 C-10.7001367 199.63320021 -12.09986904 198.21522306 -13.50055695 196.79819107 C-16.90334902 193.35167784 -20.29324168 189.89294125 -23.6763382 186.42709732 C-26.60373791 187.74783781 -28.66100303 189.1683545 -30.91284943 191.45001602 C-31.5294342 192.06963211 -32.14601898 192.6892482 -32.78128815 193.32764053 C-33.44629333 194.00612045 -34.11129852 194.68460037 -34.79645538 195.38364029 C-35.86070236 196.45708694 -35.86070236 196.45708694 -36.94644928 197.55221939 C-38.48620283 199.10627554 -40.02371053 200.66255936 -41.55923462 202.22079468 C-43.99269397 204.6890441 -46.43318658 207.15012971 -48.87586212 209.60925674 C-55.81984777 216.60213391 -62.75268996 223.60597916 -69.6763382 230.61899185 C-73.91287147 234.90920431 -78.15918645 239.18953295 -82.41160583 243.46399689 C-84.0276746 245.09245546 -85.63994187 246.72469601 -87.2482605 248.36080933 C-89.50258307 250.65372982 -91.76911308 252.9339098 -94.03864288 255.21176529 C-95.02400528 256.22341248 -95.02400528 256.22341248 -96.02927399 257.25549698 C-101.83467802 263.03678361 -107.67943196 267.00012717 -116.1138382 266.98959732 C-127.40815114 266.53627054 -134.09044298 259.62363219 -142.1763382 252.48959732 C-145.23207709 249.79493042 -148.36956448 247.22251629 -151.5513382 244.67709732 C-155.55855879 241.42673098 -159.21731652 238.00162573 -162.80524445 234.29819107 C-164.56641361 232.5370219 -166.386803 230.95532106 -168.3013382 229.36459732 C-177.58149277 221.36572642 -185.77330298 211.81353464 -193.38336945 202.24740982 C-195.13520755 200.09267879 -196.91362661 197.99952835 -198.75055695 195.91928482 C-199.28664581 195.30899429 -199.82273468 194.69870377 -200.37506866 194.06991959 C-201.41547355 192.88990213 -202.46223371 191.71544304 -203.51667023 190.54794693 C-208.65689362 184.69194184 -212.25560502 178.933047 -212.1763382 170.92709732 C-212.1866507 169.88553482 -212.1969632 168.84397232 -212.2075882 167.77084732 C-210.900154 159.54170269 -206.02955258 154.20674793 -200.24567413 148.5423317 C-199.13289093 147.42867233 -199.13289093 147.42867233 -197.99762726 146.2925148 C-195.56135657 143.85901425 -193.11126108 141.43996279 -190.6607132 139.02084732 C-188.96161847 137.32921872 -187.26340905 135.63670048 -185.56604767 133.94333267 C-181.10981551 129.50232724 -176.64169997 125.07346898 -172.1709671 120.64706802 C-167.60559603 116.12271301 -163.05161525 111.58692484 -158.4966507 107.05209732 C-149.5676332 98.16589852 -140.62639596 89.29210173 -131.6763382 80.42709732 C-133.59648485 76.22024594 -136.49010626 73.42942793 -139.7857132 70.26303482 C-141.02818704 69.04587914 -142.27036491 67.82842126 -143.5122757 66.61069107 C-145.46111416 64.71118411 -147.4129599 62.81501534 -149.37067413 60.92465591 C-167.62016856 43.26370537 -167.62016856 43.26370537 -168.3013382 33.30209732 C-167.80234864 26.37048151 -165.08401132 21.51098792 -160.2388382 16.61459732 C-151.67288121 9.81149244 -138.55083111 9.70322344 -128.0513382 8.42709732 C-126.67346532 8.25680444 -125.29561752 8.08630861 -123.91779327 7.91562271 C-121.13521067 7.57255793 -118.3520544 7.23472484 -115.56842804 6.90024185 C-112.18111397 6.48846073 -108.79789006 6.05413745 -105.41461945 5.61069107 C-70.46341563 1.1834247 -35.19451218 0.12429252 0 0 Z M-88.3013382 25.36459732 C-89.67616867 25.48357376 -89.67616867 25.48357376 -91.0787735 25.60495377 C-104.67459452 26.79848297 -118.16810251 28.4870637 -131.6763382 30.42709732 C-133.21486965 30.64541647 -134.75344126 30.86345293 -136.29206085 31.08115005 C-139.42085298 31.52513049 -142.54893365 31.97346355 -145.6763382 32.42709732 C-144.33557189 35.40932191 -142.85755816 37.4947016 -140.54694366 39.79941177 C-139.91223145 40.43720062 -139.27751923 41.07498947 -138.6235733 41.73210526 C-137.59394974 42.75095055 -137.59394974 42.75095055 -136.5435257 43.79037857 C-135.8328595 44.50058655 -135.1221933 45.21079453 -134.38999176 45.94252396 C-132.88428914 47.44520689 -131.37615821 48.94546 -129.86579132 50.44345474 C-127.57557517 52.71555209 -125.29332509 54.99541054 -123.0122757 57.2767067 C-121.54399392 58.74006727 -120.07525796 60.2029723 -118.6060257 61.66537857 C-117.93175537 62.33853607 -117.25748505 63.01169357 -116.56278229 63.70524979 C-112.61350508 67.61597921 -108.56839081 71.28173923 -104.24521637 74.77809525 C-102.38195521 76.73651469 -101.92485903 77.74365614 -101.6763382 80.42709732 C-102.94602966 82.29806137 -102.94602966 82.29806137 -104.94159698 84.25998306 C-105.69052719 85.00856079 -106.4394574 85.75713852 -107.21108246 86.52840042 C-108.04846451 87.33995087 -108.88584656 88.15150131 -109.74860382 88.9876442 C-110.61813187 89.84987091 -111.48765991 90.71209763 -112.38353729 91.60045242 C-114.2783124 93.4761586 -116.17695643 95.3466843 -118.08361053 97.21019363 C-121.09610212 100.1551999 -124.08954225 103.1190706 -127.08026886 106.08615494 C-133.9715033 112.91710576 -140.88749962 119.72280955 -147.80371094 126.52845383 C-154.14128067 132.76521528 -160.47354863 139.00711671 -166.78582335 145.26949167 C-169.76147716 148.22018196 -172.74891034 151.15824437 -175.74581909 154.08733749 C-178.04165193 156.33722587 -180.32153892 158.60318297 -182.60407257 160.86655045 C-183.86014565 162.08387611 -183.86014565 162.08387611 -185.14159393 163.32579422 C-185.89052414 164.07437195 -186.63945435 164.82294968 -187.41107941 165.59421158 C-188.06961662 166.24164574 -188.72815384 166.8890799 -189.40664673 167.55613327 C-190.8975164 169.33551404 -190.8975164 169.33551404 -190.52153015 171.48208237 C-189.13896142 174.66374641 -186.82110661 177.09958271 -184.5513382 179.67709732 C-184.05069855 180.25628922 -183.5500589 180.83548111 -183.03424835 181.43222427 C-181.587851 183.10274092 -180.13286695 184.76541628 -178.6763382 186.42709732 C-178.0266507 187.17862076 -177.3769632 187.9301442 -176.7075882 188.70444107 C-175.04336453 190.62379337 -173.36174447 192.52631867 -171.6763382 194.42709732 C-170.71050812 195.51909439 -170.71050812 195.51909439 -169.72516632 196.63315201 C-164.25756566 202.76613525 -158.61328456 208.68269751 -152.8013382 214.48959732 C-151.4858902 215.80492447 -151.4858902 215.80492447 -150.14386749 217.14682388 C-144.96517174 222.2799452 -139.76027787 227.13492678 -134.00055695 231.61069107 C-131.50619549 233.56006599 -129.15546603 235.62357051 -126.8013382 237.73959732 C-126.07817413 238.38412857 -125.35501007 239.02865982 -124.60993195 239.69272232 C-123.02129391 241.11768249 -121.44133969 242.55231818 -119.8638382 243.98959732 C-117.84503343 245.6453171 -117.84503343 245.6453171 -115.78085709 245.23563099 C-113.16356078 244.23009372 -111.79484409 242.91474942 -109.81653595 240.92805862 C-109.06217758 240.17782425 -108.30781921 239.42758987 -107.5306015 238.65462112 C-106.71276688 237.82600067 -105.89493225 236.99738022 -105.05231476 236.14365005 C-104.18366287 235.27543625 -103.31501099 234.40722244 -102.42003632 233.51269913 C-100.04088458 231.13181515 -97.66858597 228.74446808 -95.29907322 226.35401416 C-92.82071975 223.85691044 -90.33387142 221.36829641 -87.84790802 218.87877274 C-83.14230522 214.16384462 -78.44440216 209.44132117 -73.74921107 204.71602732 C-68.40326996 199.33655736 -63.04881061 193.96560064 -57.69361544 188.59534538 C-46.67834433 177.54871424 -35.67383029 166.49143022 -24.6763382 155.42709732 C-20.76012828 158.73272912 -16.92206132 162.05597838 -13.30158234 165.68832779 C-12.52130173 166.46868393 -11.74102112 167.24904007 -10.93709564 168.05304337 C-10.12014725 168.87515305 -9.30319885 169.69726273 -8.46149445 170.54428482 C-7.17788277 171.83001892 -7.17788277 171.83001892 -5.86833954 173.14172745 C-3.15613354 175.85949686 -0.44743989 178.58073623 2.2611618 181.30209732 C4.1079355 183.15389074 5.95493834 185.00545566 7.80217743 186.85678482 C12.31199382 191.37758167 16.8189375 195.90122678 21.3236618 200.42709732 C23.78798557 196.73061167 24.02463039 193.41034632 24.50725555 189.10678482 C24.65738098 187.85055313 24.65738098 187.85055313 24.81053925 186.56894302 C25.13661875 183.81431446 25.44980105 181.05842602 25.7611618 178.30209732 C25.98291306 176.37387354 26.20467423 174.44565089 26.42644501 172.51742935 C27.07610083 166.82250942 27.70237159 161.12517074 28.3236618 155.42709732 C28.44994965 154.28361832 28.44994965 154.28361832 28.57878876 153.11703873 C32.50041628 117.56583596 33.48652808 81.79720173 33.5736618 46.05209732 C33.57892883 44.92289871 33.58419586 43.7937001 33.5896225 42.63028336 C33.60118609 39.45044077 33.59812042 36.27100375 33.5892868 33.09115982 C33.59323959 32.13834122 33.59719238 31.18552261 33.60126495 30.20383072 C33.5950563 29.33600967 33.58884766 28.46818863 33.58245087 27.57406998 C33.58085968 26.81727951 33.57926849 26.06048904 33.57762909 25.28076553 C33.48017112 23.18055359 33.48017112 23.18055359 31.3236618 21.42709732 C29.14236737 21.12096869 29.14236737 21.12096869 26.59075165 21.16830826 C25.59729233 21.16210464 24.60383301 21.15590103 23.58026886 21.14950943 C22.49269791 21.15345718 21.40512695 21.15740494 20.2845993 21.16147232 C19.15332108 21.1586525 18.02204285 21.15583267 16.85648346 21.1529274 C13.13708608 21.14862296 9.41802536 21.16133291 5.6986618 21.17709732 C3.79157944 21.18175003 3.79157944 21.18175003 1.84597015 21.18649673 C-28.3430213 21.27299338 -58.23294955 22.74659737 -88.3013382 25.36459732 Z " fill="#FCFDFD" transform="translate(325.6763381958008,131.57290267944336)"/>
<path d="M0 0 C3.5 0.9375 3.5 0.9375 5.1875 2.5 C5.9489105 3.91404807 6.68514756 5.34346575 7.3515625 6.8046875 C10.77004515 14.16971109 15.52541301 17.75839916 22.86328125 21.04296875 C24.5 21.9375 24.5 21.9375 25.5 23.9375 C25.875 26.8125 25.875 26.8125 25.5 29.9375 C22.81318057 32.87620876 20.12745584 34.13351953 16.4375 35.375 C12.48044287 36.7781591 10.73394352 38.26744993 8.5 41.9375 C7.41592035 44.25421836 6.39336949 46.57983534 5.4296875 48.94921875 C4.5 50.9375 4.5 50.9375 2.5 52.9375 C-0.9375 53.3125 -0.9375 53.3125 -4.5 52.9375 C-6.58788902 51.15892788 -7.34363493 49.31291392 -8.38671875 46.80859375 C-11.09286808 40.31576351 -11.09286808 40.31576351 -16.5 35.9375 C-18.82144357 35.11935235 -21.13565266 34.38902928 -23.51171875 33.74609375 C-25.5 32.9375 -25.5 32.9375 -27.5 29.9375 C-27.92705614 26.59222693 -28.01935859 24.71653789 -26.125 21.875 C-23.62391555 20.02896148 -21.30807164 18.86713505 -18.5 17.5625 C-12.69889218 14.77694602 -10.73053454 11.44779046 -7.9375 5.75 C-4.95340149 -0.0884536 -4.95340149 -0.0884536 0 0 Z " fill="#345EAF" transform="translate(107.5,229.0625)"/>
<path d="M0 0 C3.57418116 1.04246951 4.16551619 1.70634615 6 4.875 C6.53625 6.009375 7.0725 7.14375 7.625 8.3125 C9.42189452 11.63146988 11.31377225 12.75496908 14.6875 14.375 C18.84475806 16.45362903 18.84475806 16.45362903 20.3125 20.4375 C20 23.875 20 23.875 18.5 26.125 C16 27.875 16 27.875 12.4375 29.3125 C8.57409166 31.0685947 7.7130867 32.08817676 6 35.875 C5.67 36.761875 5.34 37.64875 5 38.5625 C4 40.875 4 40.875 1 42.875 C-4.44444444 42.43055556 -4.44444444 42.43055556 -7 39.875 C-7.474375 38.740625 -7.94875 37.60625 -8.4375 36.4375 C-11.11465985 30.33357554 -13.90426704 29.42412469 -20 26.875 C-22 24.875 -22 24.875 -22.3125 21.4375 C-22 17.875 -22 17.875 -20.72265625 16.25390625 C-18.89803177 14.79337917 -17.29765108 14.08693563 -15.125 13.25 C-10.64827266 11.14717028 -9.12771361 8.29335232 -7.10546875 3.8984375 C-5.30443907 0.60185313 -3.69614935 -0.15400622 0 0 Z " fill="#345FB0" transform="translate(145,197.125)"/>
<path d="M0 0 C3.53745445 1.03175755 4.21187391 1.72449212 6 4.875 C6.433125 5.865 6.86625 6.855 7.3125 7.875 C9.66055001 12.04931113 12.8173947 14.10813868 17.3125 15.6875 C19 16.875 19 16.875 20 20.25 C20 23.875 20 23.875 18.5 26.125 C16 27.875 16 27.875 12.5625 29 C8.87962726 30.39288136 7.94140751 32.43333786 6.3125 35.9375 C5.78076172 37.25427734 5.78076172 37.25427734 5.23828125 38.59765625 C4 40.875 4 40.875 2.16796875 42.24609375 C-0.7078487 43.08033989 -2.20788492 42.9783358 -5 41.875 C-6.484375 39.51171875 -6.484375 39.51171875 -7.75 36.5625 C-9.87500637 32.29035178 -11.30472353 30.16469853 -15.75 28.3125 C-16.50796875 28.06371094 -17.2659375 27.81492187 -18.046875 27.55859375 C-20 26.875 -20 26.875 -22 24.875 C-22.625 21.5625 -22.625 21.5625 -22 17.875 C-20.15368961 16.27903678 -18.24493949 15.21335499 -16.1015625 14.05078125 C-10.85901301 11.117682 -8.55766201 7.10658138 -6 1.875 C-3 -0.125 -3 -0.125 0 0 Z " fill="#325CAB" transform="translate(145,389.125)"/>
<path d="M0 0 C3.125 0.4375 3.125 0.4375 5.3125 2.5625 C7.125 5.4375 7.125 5.4375 8.3125 8.4375 C10.61676014 12.25144782 13.12001699 13.37600566 17.06640625 15.26171875 C19.125 16.4375 19.125 16.4375 21.125 19.4375 C21.5625 21.875 21.5625 21.875 21.125 24.4375 C18.07644188 27.48605812 15.07447948 28.87849494 11.125 30.4375 C7.70206411 32.93887622 6.71938764 36.6248339 5.125 40.4375 C3.125 42.4375 3.125 42.4375 0.1875 42.75 C-2.875 42.4375 -2.875 42.4375 -4.5625 41.375 C-5.875 39.4375 -5.875 39.4375 -7.25 35.9375 C-9.0720068 32.01317767 -10.04405957 31.21933276 -13.875 29.4375 C-19.875 26.4375 -19.875 26.4375 -20.875 25.4375 C-21.34873884 19.04202564 -21.34873884 19.04202564 -19.6015625 16.8125 C-17.77526868 15.35807597 -16.17047229 14.64859633 -14 13.8125 C-9.52362036 11.7059684 -7.9597824 8.83274128 -5.8828125 4.4609375 C-4.33694877 1.3572266 -3.47087859 0.52817718 0 0 Z " fill="#325DAD" transform="translate(271.875,367.5625)"/>
<path d="M0 0 C1.859375 0.20703125 1.859375 0.20703125 4 1 C5.203125 3.07421875 5.203125 3.07421875 6.25 5.6875 C9.7561765 13.23926478 15.55417246 16.64937761 23 20 C22.505 21.485 22.505 21.485 22 23 C20.04821985 23.72778243 18.09462989 24.45139095 16.12890625 25.140625 C10.80238341 27.29078101 7.97327883 30.58341323 5.6875 35.6875 C5.11628628 37.12155976 4.55223488 38.55852536 4 40 C3.67 40.66 3.34 41.32 3 42 C2.01 42 1.02 42 0 42 C-0.23074219 41.33613281 -0.46148437 40.67226563 -0.69921875 39.98828125 C-3.19288214 33.23666297 -5.53582645 28.94859762 -12 25.3125 C-14.64900371 24.15356088 -17.29930453 23.03261886 -20 22 C-19 19 -19 19 -16.92578125 17.859375 C-16.06339844 17.49328125 -15.20101562 17.1271875 -14.3125 16.75 C-6.56350654 13.05262312 -2.91078215 7.92379585 0 0 Z " fill="#F9FBFD" transform="translate(105,235)"/>
<path d="M0 0 C3.125 1.0625 3.125 1.0625 5.125 4.375 C5.43179688 5.00792969 5.73859375 5.64085937 6.0546875 6.29296875 C7.73053193 9.06361667 10.45161679 10.31898921 13.125 12.0625 C14.7587233 14.78537216 15.35497158 16.0851208 14.625 19.1875 C13.125 21.0625 13.125 21.0625 10.25 22.375 C6.99099161 24.13486453 6.63450591 24.57335125 5.125 27.6875 C3.125 31.0625 3.125 31.0625 0.125 32.25 C-2.875 32.0625 -2.875 32.0625 -5.125 30.375 C-6.875 28.0625 -6.875 28.0625 -7.75 26 C-9.42679527 23.11218592 -11.90375819 22.42431916 -14.875 21.0625 C-16.875 19.0625 -16.875 19.0625 -16.9375 15.6875 C-15.875 12.0625 -15.875 12.0625 -12.5625 10 C-11.9334375 9.70222656 -11.304375 9.40445312 -10.65625 9.09765625 C-7.797991 7.43660661 -6.51471034 4.85608058 -4.875 2.0625 C-2.875 0.0625 -2.875 0.0625 0 0 Z " fill="#335EAF" transform="translate(96.875,324.9375)"/>
<path d="M0 0 C1.88498001 1.88498001 2.8143461 3.54300578 3.8125 6 C5.56187022 8.94630774 8.12550873 10.22637773 11 12 C12 13 12 13 12 16.375 C11.67 17.57125 11.34 18.7675 11 20 C8.69631264 21.06652192 6.35981813 22.06421005 4 23 C2.14083176 25.96707046 2.14083176 25.96707046 1 29 C-1 31 -1 31 -4.375 31.0625 C-8 30 -8 30 -9.171875 28.4375 C-9.81072563 27.18074467 -10.43174719 25.91477632 -11.03515625 24.640625 C-12.46473183 22.20976773 -14.40199397 21.86600201 -17 21 C-19.22690301 18.84732709 -19.94327036 17.71857549 -20.1875 14.625 C-18.57092509 11.05151861 -16.11260466 9.68250536 -12.9375 7.48828125 C-10.55862342 5.66095872 -9.36142472 3.64721473 -8 1 C-5.17116253 -0.41441874 -3.12623255 -0.31900332 0 0 Z " fill="#325DAC" transform="translate(217,411)"/>
<path d="M0 0 C3.52123993 1.11649071 4.91531737 3.20809738 7.13671875 6.078125 C8.55077719 7.97284771 8.55077719 7.97284771 10.9375 9.375 C12.5625 10.8125 12.5625 10.8125 13 13.8125 C12.5625 16.8125 12.5625 16.8125 11.25 18.625 C9.5625 19.8125 9.5625 19.8125 6.5625 20.8125 C4.9178326 23.27576712 4.9178326 23.27576712 3.5625 25.8125 C3.2325 26.1425 2.9025 26.4725 2.5625 26.8125 C-0.8125 26.6875 -0.8125 26.6875 -4.4375 25.8125 C-6.0625 23.4375 -6.0625 23.4375 -7.4375 20.8125 C-9.96938648 19.05927063 -9.96938648 19.05927063 -12.4375 17.8125 C-12.7675 17.4825 -13.0975 17.1525 -13.4375 16.8125 C-13.3125 13.4375 -13.3125 13.4375 -12.4375 9.8125 C-10.1875 8.25 -10.1875 8.25 -7.4375 6.8125 C-6.56936514 5.77824057 -5.73712386 4.71309576 -4.9375 3.625 C-2.4375 0.8125 -2.4375 0.8125 0 0 Z " fill="#325DAD" transform="translate(101.4375,375.1875)"/>
<path d="M0 0 C1.39300182 1.95890881 2.72245446 3.9639118 4 6 C5.3303125 6.7115625 5.3303125 6.7115625 6.6875 7.4375 C9 9 9 9 9.8125 12.6875 C9.874375 13.780625 9.93625 14.87375 10 16 C8.63875 16.804375 8.63875 16.804375 7.25 17.625 C4.54544837 19.38169475 3.79583522 20.33176777 2 23.25 C0 26 0 26 -3 26.75 C-7.17152911 25.70711772 -7.81572392 23.59348646 -10 20 C-12.56610666 18.19203897 -12.56610666 18.19203897 -15 17 C-16 16 -16 16 -16.4375 13.1875 C-16.293125 12.135625 -16.14875 11.08375 -16 10 C-13.1875 7.9375 -13.1875 7.9375 -10 6 C-8.26509754 3.41556677 -8.26509754 3.41556677 -7 1 C-4.34665389 -0.32667306 -2.94124405 -0.49020734 0 0 Z " fill="#335EAF" transform="translate(307,344)"/>
<path d="M0 0 C3 1 3 1 3.9921875 2.70703125 C4.42917969 3.74923828 4.42917969 3.74923828 4.875 4.8125 C7.16212806 9.67373417 9.87899321 12.05733031 14.8125 14.25 C15.534375 14.4975 16.25625 14.745 17 15 C16.67 15.99 16.34 16.98 16 18 C14.28510516 18.69255369 12.56942853 19.38331961 10.84765625 20.05859375 C6.77104153 22.13568497 4.55638094 25.78126079 2.6875 29.875 C2.460625 30.57625 2.23375 31.2775 2 32 C1.34 32 0.68 32 0 32 C-0.36351562 31.20335937 -0.36351562 31.20335937 -0.734375 30.390625 C-3.48661992 24.53224942 -3.48661992 24.53224942 -8 20 C-11.63543901 18.72234735 -11.63543901 18.72234735 -15 18 C-15 17.01 -15 16.02 -15 15 C-14.46890625 14.76925781 -13.9378125 14.53851563 -13.390625 14.30078125 C-6.29104952 11.02305753 -3.30641435 7.10879085 0 0 Z " fill="#F6F8FB" transform="translate(271,373)"/>
<path d="M0 0 C3 1 3 1 3.95703125 2.70703125 C4.23933594 3.40183594 4.52164063 4.09664063 4.8125 4.8125 C7.37782976 10.30682696 11.63111308 12.52205219 17 15 C17 15.66 17 16.32 17 17 C15.7625 17.391875 14.525 17.78375 13.25 18.1875 C6.9467777 20.56649396 4.75704051 25.07236289 2 31 C1.34 31 0.68 31 0 31 C-0.31453125 30.38511719 -0.6290625 29.77023437 -0.953125 29.13671875 C-1.38109375 28.32847656 -1.8090625 27.52023437 -2.25 26.6875 C-2.87648437 25.48673828 -2.87648437 25.48673828 -3.515625 24.26171875 C-6.43155349 19.81876455 -10.01727396 18.47216906 -15 17 C-13.52440331 12.57320993 -11.09942632 12.08567304 -7 10 C-6.34 10 -5.68 10 -5 10 C-4.731875 9.46375 -4.46375 8.9275 -4.1875 8.375 C-2.09375 4.1875 -2.09375 4.1875 0 0 Z " fill="#F8F9FC" transform="translate(143,395)"/>
<path d="M0 0 C3 1 3 1 3.95703125 2.70703125 C4.23933594 3.40183594 4.52164063 4.09664062 4.8125 4.8125 C7.37782976 10.30682696 11.63111308 12.52205219 17 15 C17 15.66 17 16.32 17 17 C15.7625 17.391875 14.525 17.78375 13.25 18.1875 C6.9467777 20.56649396 4.75704051 25.07236289 2 31 C1.34 31 0.68 31 0 31 C-0.31453125 30.38511719 -0.6290625 29.77023438 -0.953125 29.13671875 C-1.38109375 28.32847656 -1.8090625 27.52023438 -2.25 26.6875 C-2.87648437 25.48673828 -2.87648437 25.48673828 -3.515625 24.26171875 C-6.43155349 19.81876455 -10.01727396 18.47216906 -15 17 C-13.52440331 12.57320993 -11.09942632 12.08567304 -7 10 C-6.34 10 -5.68 10 -5 10 C-4.731875 9.46375 -4.46375 8.9275 -4.1875 8.375 C-2.09375 4.1875 -2.09375 4.1875 0 0 Z " fill="#F8F9FC" transform="translate(143,203)"/>
<path d="M0 0 C0.66 0 1.32 0 2 0 C2.5775 0.9075 3.155 1.815 3.75 2.75 C6.2758091 6.39839092 8.24557868 7.78147831 12 10 C11.01 10.66 10.02 11.32 9 12 C5.23729409 14.66142613 3.35769621 16.55663057 2 21 C1.34 21 0.68 21 0 21 C-0.4125 20.071875 -0.825 19.14375 -1.25 18.1875 C-2.96867222 15.05706132 -4.0430382 13.84810113 -7 12 C-7.99 11.34 -8.98 10.68 -10 10 C-9.44570312 9.61328125 -8.89140625 9.2265625 -8.3203125 8.828125 C-7.59585938 8.30734375 -6.87140625 7.7865625 -6.125 7.25 C-5.40570313 6.73953125 -4.68640625 6.2290625 -3.9453125 5.703125 C-1.91429435 3.92496453 -1.02144988 2.47298393 0 0 Z " fill="#F3F6FA" transform="translate(95,331)"/>
<path d="M0 0 C3 1 3 1 4.3125 3.3125 C6.37157083 6.59176095 8.71218683 8.0273121 12 10 C11 12 11 12 8.125 13.25 C4.40479896 15.33331258 3.55576936 17.11057661 2 21 C0.1436027 19.1436027 -1.68885543 17.2767018 -3.5 15.375 C-5.83688754 12.8187374 -5.83688754 12.8187374 -9 12 C-8 9 -8 9 -5.0625 7.125 C-1.82115423 4.87590294 -1.0319838 3.71514168 0 0 Z " fill="#F4F6FA" transform="translate(212,416)"/>
<path d="M0 0 C0.66 0 1.32 0 2 0 C3.37073786 1.63604196 4.70055256 3.30678061 6 5 C6.98230498 6.0173873 7.97469597 7.02596117 9 8 C7.824375 8.61875 7.824375 8.61875 6.625 9.25 C3.94108344 11.0392777 3.11901051 12.04988139 2 15 C1.34 15 0.68 15 0 15 C-0.45375 14.236875 -0.9075 13.47375 -1.375 12.6875 C-3.00525469 9.99130956 -4.39735892 8.70517864 -7 7 C-5.47005208 5.76302083 -3.94010417 4.52604167 -2.41015625 3.2890625 C-0.86733563 2.0333609 -0.86733563 2.0333609 0 0 Z " fill="#F0F3F9" transform="translate(303,350)"/>
<path d="M0 0 C0.5775 0.7425 1.155 1.485 1.75 2.25 C3.72253526 4.66087643 5.76044282 6.84042701 8 9 C6.8553125 9.61875 6.8553125 9.61875 5.6875 10.25 C3.0633358 11.95875809 1.69678024 13.41017753 0 16 C-0.391875 15.21625 -0.78375 14.4325 -1.1875 13.625 C-3.24274669 10.64843582 -4.59679258 10.01176437 -8 9 C-6.48890738 7.48890738 -4.97917634 5.98000928 -3.4375 4.5 C-1.77629047 2.85424985 -1.77629047 2.85424985 0 0 Z " fill="#F1F4FA" transform="translate(101,381)"/>
</svg>
