<?xml version="1.0" encoding="UTF-8"?>
<svg version="1.1" xmlns="http://www.w3.org/2000/svg" width="512" height="512">
<path d="M0 0 C0.69577148 0.21430664 1.39154297 0.42861328 2.10839844 0.64941406 C25.23826375 8.02991451 45.29246224 22.79623523 60 42 C60.60714844 42.77988281 61.21429688 43.55976562 61.83984375 44.36328125 C76.58479748 64.25726644 83.63264373 88.6789269 83.4375 113.25 C83.43293793 114.2568132 83.43293793 114.2568132 83.42828369 115.28396606 C83.35293725 126.58643389 82.35700462 137.18555753 79 148 C78.79101074 148.68513672 78.58202148 149.37027344 78.36669922 150.07617188 C68.886226 180.10122115 46.25391413 200.91236633 24.546875 222.55078125 C22.79260633 224.30318047 21.03856155 226.05580384 19.284729 227.80863953 C14.71024986 232.37933499 10.13277376 236.94701715 5.55462646 241.51403809 C0.86660397 246.19175634 -3.81852203 250.87237379 -8.50390625 255.55273438 C-17.66646825 264.7046324 -26.83210664 273.85344281 -36 283 C-35.38428635 283.02211044 -34.76857269 283.04422089 -34.13420105 283.06700134 C-31.29102394 283.1726248 -28.44828525 283.28743762 -25.60546875 283.40234375 C-24.63734253 283.43694702 -23.66921631 283.47155029 -22.67175293 283.50720215 C7.85630093 284.78000389 34.85458151 298.71096518 55.6875 320.75 C78.25713425 347.03990363 84.58081222 377.01027256 83 411 C80.49615522 438.58333924 64.54579219 464.96004457 43.7734375 482.81640625 C17.17010579 503.76184628 -13.39455234 510.84488419 -46.93115234 507.72753906 C-74.45735712 504.05043394 -100.91124841 487.68250202 -118 466 C-129.20263132 451.26016695 -136.36859833 435.13649196 -140 417 C-140.25148804 415.76008301 -140.25148804 415.76008301 -140.50805664 414.49511719 C-141.2040127 409.55054795 -141.36627053 404.6111586 -141.5625 399.625 C-141.60568359 398.60277344 -141.64886719 397.58054687 -141.69335938 396.52734375 C-141.79887792 394.01834712 -141.90099213 391.50926057 -142 389 C-142.43823499 389.44007857 -142.87646997 389.88015715 -143.32798481 390.33357143 C-154.03290785 401.08282471 -164.74348248 411.82641217 -175.46024036 422.56386471 C-180.64282508 427.75672534 -185.82353781 432.95142721 -190.99975586 438.15063477 C-195.51574978 442.68667616 -200.03534792 447.21909107 -204.55915946 451.74733645 C-206.95034808 454.14111338 -209.33979645 456.53656687 -211.72492409 458.9363842 C-230.75797172 478.07362694 -230.75797172 478.07362694 -240 485 C-240.81608231 485.62482773 -241.63216461 486.24965546 -242.47297668 486.89341736 C-262.14932261 501.72344746 -286.86148259 508.63421877 -311.25 508.4375 C-311.92253815 508.43379395 -312.59507629 508.43008789 -313.28799438 508.42626953 C-341.52781139 508.20589052 -369.25417996 498.87075393 -389.88671875 479.0078125 C-392.00134689 476.93371603 -392.00134689 476.93371603 -394.5078125 475.04296875 C-414.41073996 458.72755956 -425.36217988 430.71910068 -429 406 C-429.92182393 389.20246076 -430.02299105 372.18134435 -425 356 C-424.79101074 355.31486328 -424.58202148 354.62972656 -424.36669922 353.92382812 C-419.51852942 338.56947464 -411.67276933 325.02808689 -401 313 C-400.30088501 312.21050461 -399.60177002 311.42100922 -398.88146973 310.60758972 C-389.75931962 300.49936501 -380.09163519 290.92695214 -370.46750832 281.30025125 C-368.95503001 279.78705475 -367.443269 278.2731453 -365.93174744 276.75899315 C-360.63718115 271.45522704 -355.34009179 266.15399643 -350.04052734 260.85522461 C-345.13318451 255.94848332 -340.23146028 251.03617825 -335.33230734 246.12126094 C-331.09436207 241.87017482 -326.85250366 237.62301965 -322.60766459 233.37881726 C-320.08612163 230.85752707 -317.5660937 228.33477089 -315.05003357 225.80800819 C-312.24277405 222.9891285 -309.42740202 220.17848236 -306.61132812 217.3684082 C-305.79853897 216.54999954 -304.98574982 215.73159088 -304.14833069 214.88838196 C-290.03209816 200.84789112 -266.46876512 180 -245 180 C-244.89816406 179.01257813 -244.79632813 178.02515625 -244.69140625 177.0078125 C-244.067304 172.68576874 -242.62241677 168.8857193 -240.9375 164.875 C-240.62804443 164.13435303 -240.31858887 163.39370605 -239.99975586 162.63061523 C-229.26075261 137.69109956 -208.30191788 119.13710788 -189.46490908 100.26472044 C-187.96073352 98.75757729 -186.45713121 97.24986439 -184.95368576 95.74199295 C-180.22102042 90.99572711 -175.48641222 86.25141246 -170.74888957 81.50999486 C-165.33147542 76.08809799 -159.92067771 70.65971063 -154.51550543 65.22561014 C-150.29879691 60.98713886 -146.07619877 56.75459232 -141.84925973 52.52632391 C-139.34141591 50.01744378 -136.83594062 47.50631469 -134.33665848 44.98890305 C-97.82841091 8.23119011 -53.32182715 -16.59518732 0 0 Z M-101.89993739 97.69974875 C-103.41709093 99.21393711 -104.93481513 100.7275513 -106.45269966 102.24100685 C-111.22297844 106.99769286 -115.99131318 111.75631462 -120.75674814 116.51785344 C-126.22115172 121.9777611 -131.6920719 127.43102801 -137.16863436 132.87873906 C-141.43246019 137.12089171 -145.69044854 141.36884697 -149.94411856 145.62118274 C-152.4724036 148.14842614 -155.00299547 150.67324466 -157.53974724 153.19199181 C-160.36425121 155.99682487 -163.17659154 158.81366692 -165.98803711 161.6315918 C-166.81566055 162.45000046 -167.643284 163.26840912 -168.49598694 164.11161804 C-173.38361293 169.03450406 -177.39705504 174.0676932 -181 180 C-180.24323975 180.30139893 -179.48647949 180.60279785 -178.70678711 180.91333008 C-165.55190644 186.19450387 -153.13214515 192.11779067 -142 201 C-141.05253906 201.73347656 -140.10507812 202.46695313 -139.12890625 203.22265625 C-133.44680124 207.71745574 -128.43484303 212.26926128 -124 218 C-123.21882813 219.00675781 -122.43765625 220.01351562 -121.6328125 221.05078125 C-112.63129557 232.98659927 -106.46173683 246.13559113 -101 260 C-91.27253569 254.11232424 -83.34345651 245.49384559 -75.34692383 237.50805664 C-74.43987198 236.6059697 -73.53282013 235.70388275 -72.59828186 234.77445984 C-70.14146532 232.33059023 -67.68783643 229.88354652 -65.2352469 227.43543553 C-63.69683262 225.89997722 -62.15784364 224.36509712 -60.61868858 222.83038139 C-55.78484552 218.01015823 -50.95296809 213.18797771 -46.12398797 208.36288267 C-40.58202882 202.82540959 -35.03357589 197.29455332 -29.47941953 191.76931483 C-25.16127678 187.47286484 -20.84899027 183.17059307 -16.5410139 178.86394972 C-13.97855909 176.30253626 -11.41380056 173.74354303 -8.84287453 171.19062996 C-5.97510239 168.34256906 -3.11958849 165.48250541 -0.26489258 162.62133789 C0.57319946 161.79246063 1.4112915 160.96358337 2.27478027 160.10958862 C15.10743638 147.1860193 23.58120795 132.06783136 24.375 113.5 C23.65026807 98.36425236 17.81158537 82.82728035 7.12109375 71.88671875 C-4.94865947 61.15063992 -20.60168526 54.08351957 -36.99609375 54.65625 C-65.71155924 57.94228506 -82.51003282 78.34590348 -101.89993739 97.69974875 Z M-264.5100708 260.22790527 C-265.37589783 261.09620972 -266.24172485 261.96451416 -267.13378906 262.85913086 C-268.08915998 263.81013909 -269.04494281 264.76073368 -270.00109863 265.71095276 C-272.56340498 268.260031 -275.11943962 270.8153063 -277.67386341 273.37228084 C-279.8191079 275.51860528 -281.96734465 277.66192298 -284.1155107 279.80532271 C-289.18676036 284.86553511 -294.25273628 289.93098413 -299.31542969 294.99975586 C-304.51512502 300.20549826 -309.72395155 305.40197449 -314.93729234 310.59404844 C-319.43815246 315.07723109 -323.93311776 319.56626582 -328.42352462 324.05991846 C-331.09465084 326.73284651 -333.76788716 329.40356794 -336.44690704 332.06858635 C-338.96542384 334.57442719 -341.47643148 337.0875678 -343.98213196 339.60622215 C-345.32711906 340.95465924 -346.67942795 342.29578125 -348.03204346 343.63656616 C-360.87649516 356.59111632 -369.60068848 371.70739044 -370.4375 390.3125 C-369.89752888 405.76917345 -363.83209826 420.79817183 -353.15625 432.0078125 C-341.32403948 442.93974613 -325.28289272 449.91244822 -309.00390625 449.34375 C-280.28844076 446.05771494 -263.48996718 425.65409652 -244.10006261 406.30025125 C-242.58290907 404.78606289 -241.06518487 403.2724487 -239.54730034 401.75899315 C-234.77702156 397.00230714 -230.00868682 392.24368538 -225.24325186 387.48214656 C-219.77884828 382.0222389 -214.3079281 376.56897199 -208.83136564 371.12126094 C-204.56753981 366.87910829 -200.30955146 362.63115303 -196.05588144 358.37881726 C-193.5275964 355.85157386 -190.99700453 353.32675534 -188.46025276 350.80800819 C-185.63574879 348.00317513 -182.82340846 345.18633308 -180.01196289 342.3684082 C-179.18433945 341.54999954 -178.356716 340.73159088 -177.50401306 339.88838196 C-172.61638707 334.96549594 -168.60294496 329.9323068 -165 324 C-166.08897583 323.57871826 -166.08897583 323.57871826 -167.19995117 323.14892578 C-201.28963603 309.78829236 -226.05189494 287.65749689 -240.82568359 254.12597656 C-242.2737424 250.77286356 -243.66133555 247.39814821 -245 244 C-250.47759459 244 -260.71741397 256.46763814 -264.5100708 260.22790527 Z " fill="#FEC244" transform="translate(429,4)"/>
<path d="M0 0 C-0.2165625 1.0209375 -0.433125 2.041875 -0.65625 3.09375 C-4.03337272 20.21171603 -4.61861387 37.69763474 -0.65625 54.7578125 C0.02019352 58.0997656 0.39779357 60.60863926 0 64 C-2.06948853 66.22850037 -2.06948853 66.22850037 -5.12353516 68.51733398 C-11.5452905 73.59134831 -17.37749761 79.13221593 -23.17724609 84.90258789 C-24.11084772 85.83029716 -25.04444935 86.75800642 -26.00634193 87.71382809 C-28.49937273 90.19542162 -30.98675119 92.68261793 -33.4727931 95.17121053 C-35.56842993 97.26793032 -37.66706547 99.36163669 -39.76562178 101.45543379 C-44.71895373 106.39774793 -49.66703609 111.34527367 -54.61181641 116.29614258 C-59.68771842 121.37809871 -64.7727683 126.45076897 -69.86230791 131.51906401 C-74.26129872 135.90037684 -78.6543938 140.28754168 -83.0429312 144.67932504 C-85.65143036 147.28962492 -88.26203198 149.8977235 -90.87842941 152.50010872 C-93.79389208 155.40053262 -96.69695397 158.31307919 -99.59912109 161.22680664 C-100.45120148 162.07124329 -101.30328186 162.91567993 -102.18118286 163.78570557 C-114.96279631 176.67958407 -123.60532548 191.8104866 -124.4375 210.3125 C-123.91718925 225.20639527 -118.21669315 240.35191148 -107.93359375 251.23046875 C-96.13263188 262.03013689 -80.15889206 268.90811632 -64.00390625 268.34375 C-35.42437263 265.07327021 -18.70225107 244.86595967 0.5992136 225.60097504 C2.09361018 224.10954556 3.58857665 222.61868951 5.08370209 221.12799072 C9.7872469 216.43804236 14.48884406 211.74615476 19.18754315 207.05135155 C24.56588249 201.67750025 29.95072239 196.31027616 35.34124684 190.94864845 C39.54315206 186.76847185 43.7391656 182.58243899 47.93088603 178.39204979 C50.41958266 175.90439146 52.91054933 173.41912349 55.40775299 170.94000244 C73.09672201 154.5525823 73.09672201 154.5525823 85 134 C85.37125 132.948125 85.7425 131.89625 86.125 130.8125 C90.89002042 115.49636295 88.74918452 99.11898124 81.4609375 85.0234375 C77.81039993 78.88153779 73.22466629 73.88431674 68.36328125 68.68359375 C56.67798255 55.4145025 54.10764874 39.3381542 54.81201172 22.23876953 C55.48908673 14.17542164 58.62375634 6.7206599 63 0 C81.99612287 5.16929892 98.05629743 14.10301 112 28 C113.25296875 29.24330078 113.25296875 29.24330078 114.53125 30.51171875 C132.50018167 48.62280969 142.99655686 69.97848035 147 95 C147.1340625 95.81210937 147.268125 96.62421875 147.40625 97.4609375 C148.42968921 104.88087179 148.2502004 112.53078208 148 120 C148.00338379 120.67522705 148.00676758 121.3504541 148.01025391 122.04614258 C147.82987149 126.20938876 147.03959678 128.40129679 144.0078125 131.31640625 C142.72610601 132.41329143 141.43101673 133.49467562 140.125 134.5625 C122.35453726 150.15418439 107.79548962 174.6317566 105.77891445 198.63115406 C104.87527262 207.23475011 102.01300573 211.40646403 95.86938477 217.29760742 C95.02844772 218.14321732 94.18751068 218.98882721 93.3210907 219.86006165 C91.02824985 222.1555631 88.71485006 224.42742024 86.38969922 226.69010329 C83.94566759 229.0785689 81.52963831 231.49505873 79.11009216 233.90827942 C75.04158324 237.9584323 70.95529445 241.98985663 66.85571289 246.00854492 C61.10628016 251.6446189 55.39129129 257.31465685 49.68217003 262.99151838 C45.69390758 266.95471804 41.69758726 270.90979027 37.69967532 274.86325288 C36.73933389 275.8129311 35.7791841 276.76280315 34.81923032 277.71287322 C14.44084769 297.87613667 14.44084769 297.87613667 5 305 C4.18410904 305.62508957 3.36821808 306.25017914 2.52760315 306.89421082 C-17.1564457 321.71911223 -41.85613443 328.63426191 -66.25 328.4375 C-66.92253815 328.43379395 -67.59507629 328.43008789 -68.28799438 328.42626953 C-96.52781139 328.20589052 -124.25417996 318.87075393 -144.88671875 299.0078125 C-147.00134689 296.93371603 -147.00134689 296.93371603 -149.5078125 295.04296875 C-169.41073996 278.72755956 -180.36217988 250.71910068 -184 226 C-184.92182393 209.20246076 -185.02299105 192.18134435 -180 176 C-179.79101074 175.31486328 -179.58202148 174.62972656 -179.36669922 173.92382812 C-174.51852942 158.56947464 -166.67276933 145.02808689 -156 133 C-155.30088501 132.21050461 -154.60177002 131.42100922 -153.88146973 130.60758972 C-144.75931962 120.49936501 -135.09163519 110.92695214 -125.46750832 101.30025125 C-123.95503001 99.78705475 -122.443269 98.2731453 -120.93174744 96.75899315 C-115.63718115 91.45522704 -110.34009179 86.15399643 -105.04052734 80.85522461 C-100.13318451 75.94848332 -95.23146028 71.03617825 -90.33230734 66.12126094 C-86.09436207 61.87017482 -81.85250366 57.62301965 -77.60766459 53.37881726 C-75.08612163 50.85752707 -72.5660937 48.33477089 -70.05003357 45.80800819 C-67.24277405 42.9891285 -64.42740202 40.17848236 -61.61132812 37.3684082 C-60.39214439 36.14079521 -60.39214439 36.14079521 -59.14833069 34.88838196 C-45.03209816 20.84789112 -21.46876512 0 0 0 Z " fill="#FC6930" transform="translate(184,184)"/>
<path d="M0 0 C23.14399954 18.71633635 37.21763481 43.93221008 41.56640625 73.3359375 C43.55901237 108.61193688 36.07384436 138.61772056 12.3046875 165.375 C-5.66685567 185.05003677 -32.0232201 198.79660216 -58.82348633 200.55883789 C-94.54207445 201.6869985 -124.03828569 193.06691973 -150.43359375 168.3359375 C-168.27641751 150.97458676 -181.35639452 125.47192904 -182.57885742 100.35083008 C-182.60360379 96.94993367 -182.61924839 93.54943051 -182.62109375 90.1484375 C-182.63333984 88.97990234 -182.64558594 87.81136719 -182.65820312 86.60742188 C-182.67045953 79.28217959 -182.03944746 72.48086478 -180.43359375 65.3359375 C-180.16160156 64.08425781 -179.88960938 62.83257812 -179.609375 61.54296875 C-171.95476807 31.4440845 -153.12006487 6.94901687 -126.74609375 -9.3515625 C-86.19205562 -31.94671646 -36.53103928 -28.71552932 0 0 Z " fill="#0291D0" transform="translate(470.43359375,311.6640625)"/>
<path d="M0 0 C25.08 0 50.16 0 76 0 C78.30557069 18.44456551 78.30557069 18.44456551 78.265625 27.0625 C78.26753845 28.02293213 78.2694519 28.98336426 78.27142334 29.97290039 C78.27276639 31.97575141 78.26920395 33.97861172 78.26074219 35.98144531 C78.25001549 38.99564725 78.26070289 42.00925344 78.2734375 45.0234375 C78.29163055 71.12510836 78.29163055 71.12510836 75 81 C50.58 81 26.16 81 1 81 C-2.45431898 62.57696547 -2.45431898 62.57696547 -2.36328125 53.7890625 C-2.36377975 52.81117767 -2.36427826 51.83329285 -2.36479187 50.82577515 C-2.36248106 48.78421976 -2.35293381 46.74265984 -2.33618164 44.70117188 C-2.31258814 41.63644947 -2.31564568 38.57260302 -2.32226562 35.5078125 C-2.31668563 33.49739082 -2.30957373 31.4869727 -2.30078125 29.4765625 C-2.30169266 28.59159088 -2.30260406 27.70661926 -2.30354309 26.79483032 C-2.20577713 17.68725738 -1.02347186 9.2112467 0 0 Z " fill="#01BFF9" transform="translate(362,360)"/>
<path d="M0 0 C1.35235245 0.00666183 1.35235245 0.00666183 2.73202515 0.01345825 C3.75293243 0.01360931 4.77383972 0.01376038 5.82568359 0.01391602 C7.48354385 0.02939987 7.48354385 0.02939987 9.17489624 0.04519653 C10.30406464 0.04802643 11.43323303 0.05085632 12.59661865 0.05377197 C16.21396345 0.06499441 19.8310634 0.09010281 23.44833374 0.11550903 C25.89624684 0.12553616 28.34416381 0.13466247 30.79208374 0.14285278 C36.80258438 0.16494047 42.81294157 0.19843829 48.82333374 0.24050903 C48.75332153 1.36263794 48.68330933 2.48476685 48.61117554 3.64089966 C47.93171089 15.0993939 47.637006 26.52372658 47.63803101 38.0017395 C47.63583492 40.73903767 47.61754617 43.47593714 47.59872437 46.21316528 C47.59578983 48.02436188 47.59380544 49.83556031 47.59286499 51.64675903 C47.58567947 52.42966309 47.57849396 53.21256714 47.5710907 54.01919556 C47.60664745 63.24323387 48.84182413 71.91616775 49.82333374 81.24050903 C32.33333374 81.57050903 14.84333374 81.90050903 -3.17666626 82.24050903 C-7.77794579 67.51641454 -10.52765756 56.70405394 -10.42666626 41.74050903 C-10.43440063 40.59453247 -10.44213501 39.44855591 -10.45010376 38.26785278 C-10.42716502 28.18627735 -8.74754495 18.88910158 -6.17666626 9.17800903 C-5.84666626 7.90828247 -5.51666626 6.63855591 -5.17666626 5.33035278 C-3.57955218 0.39551981 -3.57955218 0.39551981 0 0 Z " fill="#01BFF9" transform="translate(298.1766662597656,359.7594909667969)"/>
<path d="M0 0 C2.03244628 3.04866942 2.92745026 5.51421333 4 9 C4.33 10.051875 4.66 11.10375 5 12.1875 C7.57520018 22.00545067 8.38729394 31.35296966 8.375 41.5 C8.37367065 43.47444092 8.37367065 43.47444092 8.37231445 45.48876953 C8.20740149 59.16231429 5.95600714 71.30466938 1 84 C0.67 83.34 0.34 82.68 0 82 C-17.16 82 -34.32 82 -52 82 C-51.34 76.06 -50.68 70.12 -50 64 C-49.84650179 60.13292495 -49.73830608 56.34762053 -49.76953125 52.48828125 C-49.76998947 51.5061113 -49.77044769 50.52394135 -49.7709198 49.51200867 C-49.77389513 47.4698259 -49.78163494 45.42764439 -49.79418945 43.38549805 C-49.81254026 40.30574267 -49.8146975 37.22628905 -49.81445312 34.14648438 C-49.81936796 32.13541414 -49.82519613 30.12434588 -49.83203125 28.11328125 C-49.83314407 27.21909988 -49.8342569 26.32491852 -49.83540344 25.40364075 C-49.89229479 17.54082549 -50.47376005 9.89359923 -51 2 C-34.17 2 -17.34 2 0 2 C0 1.34 0 0.68 0 0 Z " fill="#07A9F1" transform="translate(504,358)"/>
<path d="M0 0 C0.72960937 0.05542969 1.45921875 0.11085937 2.2109375 0.16796875 C7.63962514 1.61737564 11.69989989 5.63619803 15.58886719 9.51757812 C16.52293396 10.44534058 17.45700073 11.37310303 18.41937256 12.32897949 C19.42046229 13.33364839 20.42129026 14.33857817 21.421875 15.34375 C22.46196826 16.38249427 23.50235812 17.42094165 24.54302979 18.45910645 C26.71473086 20.62786991 28.88280091 22.80018171 31.04833984 24.97509766 C33.82118894 27.75936898 36.60295951 30.5345262 39.38749313 33.30710602 C41.53410174 35.44648347 43.67591908 37.59060659 45.81632233 39.7361908 C46.84029707 40.76149708 47.86575236 41.78532701 48.89272308 42.80763245 C50.32622994 44.23605052 51.75263291 45.67158708 53.17871094 47.10742188 C53.99112244 47.92142456 54.80353394 48.73542725 55.64056396 49.57409668 C59.96302878 54.44974871 60.06122832 58.54189522 59.9375 64.8984375 C59.36897844 70.19990101 56.84634216 72.65222495 53.125 76.1875 C48.06721514 78.53575726 43.10814207 78.78347307 37.625 77.8125 C33.50438098 75.3184233 30.09201302 72.53800076 26.67700195 69.1550293 C25.74616287 68.23694992 24.81532379 67.31887054 23.85627747 66.37297058 C22.85820798 65.37795846 21.86055251 64.38253091 20.86328125 63.38671875 C19.82543528 62.35530925 18.7874435 61.32404645 17.74931335 60.29292297 C15.58151185 58.13705393 13.41784026 55.97713464 11.2565918 53.81469727 C8.49619396 51.05409596 5.72227645 48.30752744 2.94463825 45.56428814 C0.79898517 43.44094079 -1.33744669 41.30849526 -3.47144508 39.17344093 C-4.49003361 38.15720102 -5.51184045 37.14417565 -6.53699303 36.13455772 C-17.96722463 24.86150048 -17.96722463 24.86150048 -18.58984375 17.15234375 C-17.96586167 11.74742851 -17.08078563 8.03297808 -13.375 3.8125 C-9.0459798 0.67396035 -5.30726162 -0.49348222 0 0 Z " fill="#67CA43" transform="translate(68.375,50.1875)"/>
<path d="M0 0 C0.73250977 -0.00700928 1.46501953 -0.01401855 2.21972656 -0.02124023 C4.62604382 -0.03875584 7.03117209 -0.02722142 9.4375 -0.01367188 C11.11849186 -0.01636866 12.79948221 -0.02025264 14.48046875 -0.02526855 C17.99754743 -0.03115485 21.5142188 -0.02262896 25.03125 -0.00390625 C29.53052189 0.01888312 34.02883927 0.00575532 38.52807617 -0.01819611 C41.99746847 -0.03267779 45.46663594 -0.02803731 48.93603516 -0.01768494 C50.59456496 -0.01502418 52.25311544 -0.01826444 53.91162109 -0.02760315 C56.23329421 -0.03780834 58.55344011 -0.02221466 60.875 0 C62.19371094 0.00318237 63.51242188 0.00636475 64.87109375 0.00964355 C70.16529367 0.76365389 73.1949097 3.20958834 76.8125 7.01757812 C79.21053575 12.18257821 79.19131535 16.91780692 78.4375 22.51757812 C76.12838725 27.49105174 73.16511365 29.84944159 68.4375 32.51757812 C64.87109375 33.0255127 64.87109375 33.0255127 60.875 33.03515625 C60.14249023 33.04216553 59.40998047 33.0491748 58.65527344 33.05639648 C56.24895618 33.07391209 53.84382791 33.06237767 51.4375 33.04882812 C49.75650814 33.05152491 48.07551779 33.05540889 46.39453125 33.0604248 C42.87745257 33.0663111 39.3607812 33.05778521 35.84375 33.0390625 C31.34447811 33.01627313 26.84616073 33.02940093 22.34692383 33.05335236 C18.87753153 33.06783404 15.40836406 33.06319356 11.93896484 33.05284119 C10.28043504 33.05018043 8.62188456 33.05342069 6.96337891 33.0627594 C4.64170579 33.07296459 2.32155989 33.05737091 0 33.03515625 C-1.31871094 33.03197388 -2.63742188 33.0287915 -3.99609375 33.0255127 C-9.29029367 32.27150236 -12.3199097 29.82556791 -15.9375 26.01757812 C-18.33553575 20.85257804 -18.31631535 16.11734933 -17.5625 10.51757812 C-13.97822937 2.79761062 -8.2761305 0.01997233 0 0 Z " fill="#68CA43" transform="translate(17.5625,159.482421875)"/>
<path d="M0 0 C4.97347362 2.30911275 7.33186346 5.27238635 10 10 C10.50793457 13.56640625 10.50793457 13.56640625 10.51757812 17.5625 C10.5245874 18.29500977 10.53159668 19.02751953 10.53881836 19.78222656 C10.55633397 22.18854382 10.54479954 24.59367209 10.53125 27 C10.53394679 28.68099186 10.53783077 30.36198221 10.54284668 32.04296875 C10.54873298 35.56004743 10.54020709 39.0767188 10.52148438 42.59375 C10.49869501 47.09302189 10.5118228 51.59133927 10.53577423 56.09057617 C10.55025591 59.55996847 10.54561544 63.02913594 10.53526306 66.49853516 C10.53260231 68.15706496 10.53584257 69.81561544 10.54518127 71.47412109 C10.55538646 73.79579421 10.53979279 76.11594011 10.51757812 78.4375 C10.51280457 80.41556641 10.51280457 80.41556641 10.50793457 82.43359375 C9.75392424 87.72779367 7.30798979 90.7574097 3.5 94.375 C-1.66500009 96.77303575 -6.4002288 96.75381535 -12 96 C-16.97347362 93.69088725 -19.33186346 90.72761365 -22 86 C-22.50793457 82.43359375 -22.50793457 82.43359375 -22.51757812 78.4375 C-22.5245874 77.70499023 -22.53159668 76.97248047 -22.53881836 76.21777344 C-22.55633397 73.81145618 -22.54479954 71.40632791 -22.53125 69 C-22.53394679 67.31900814 -22.53783077 65.63801779 -22.54284668 63.95703125 C-22.54873298 60.43995257 -22.54020709 56.9232812 -22.52148438 53.40625 C-22.49869501 48.90697811 -22.5118228 44.40866073 -22.53577423 39.90942383 C-22.55025591 36.44003153 -22.54561544 32.97086406 -22.53526306 29.50146484 C-22.53260231 27.84293504 -22.53584257 26.18438456 -22.54518127 24.52587891 C-22.55538646 22.20420579 -22.53979279 19.88405989 -22.51757812 17.5625 C-22.51439575 16.24378906 -22.51121338 14.92507812 -22.50793457 13.56640625 C-21.75392424 8.27220633 -19.30798979 5.2425903 -15.5 1.625 C-10.33499991 -0.77303575 -5.5997712 -0.75381535 0 0 Z " fill="#68CA43" transform="translate(182,0)"/>
<path d="M0 0 C14.94910339 8.9901887 22.19716246 28.92939341 26.62890625 45.04296875 C26.62890625 46.03296875 26.62890625 47.02296875 26.62890625 48.04296875 C4.18890625 48.04296875 -18.25109375 48.04296875 -41.37109375 48.04296875 C-39.95989499 40.98697493 -38.53274612 35.13787199 -35.74609375 28.66796875 C-35.39490479 27.84723877 -35.04371582 27.02650879 -34.68188477 26.1809082 C-28.76623845 12.76429089 -17.68510807 -7.13814082 0 0 Z " fill="#01BEF9" transform="translate(407.37109375,296.95703125)"/>
<path d="M0 0 C21.78 0 43.56 0 66 0 C65.1476839 6.81852876 64.00123996 11.51181944 61.5 17.6875 C61.14615234 18.56164551 60.79230469 19.43579102 60.42773438 20.33642578 C55.63085614 31.74266295 49.44747199 42.276264 38 48 C32.64761173 48.79931696 28.1358229 48.57064808 23.4375 45.75 C10.25412156 35.8332994 4.28751696 19.3438373 0 4 C0 2.68 0 1.36 0 0 Z " fill="#01BFF9" transform="translate(367,456)"/>
<path d="M0 0 C24.44035587 2.19688592 48.1483843 19.16685671 63.85546875 37.234375 C75 51.60655738 75 51.60655738 75 55 C58.83 55 42.66 55 26 55 C24.02 48.07 22.04 41.14 20 34 C18.63624483 30.47518079 17.36414146 27.26798217 15.6875 23.9375 C15.31359131 23.16857422 14.93968262 22.39964844 14.55444336 21.60742188 C11.11243051 14.76212688 6.85229692 8.90892818 2 3 C1.34 2.01 0.68 1.02 0 0 Z " fill="#07A9F0" transform="translate(423,290)"/>
<path d="M0 0 C15.84 0 31.68 0 48 0 C49.32 4.145625 50.64 8.29125 52 12.5625 C56.6207129 26.62897595 61.70192589 38.77504845 71.43359375 50.14453125 C73 52 73 52 74 54 C49.47371455 51.79539007 25.80244653 34.77011424 10.078125 16.62890625 C0 3.87969925 0 3.87969925 0 0 Z " fill="#01BFF9" transform="translate(303,456)"/>
<path d="M0 0 C15.84 0 31.68 0 48 0 C39.52331248 21.19171881 18.14365808 37.54772779 -2 47 C-9.78380644 50.29476853 -17.57458253 53.03584299 -26 54 C-25.64808594 53.55011719 -25.29617188 53.10023438 -24.93359375 52.63671875 C-12.23072843 36.08651041 -6.46729261 20.32577677 0 0 Z " fill="#07A9F1" transform="translate(449,456)"/>
<path d="M0 0 C-0.70962891 0.78697266 -0.70962891 0.78697266 -1.43359375 1.58984375 C-14.18505975 16.52869573 -20.29400739 34.17602956 -25 53 C-40.51 53 -56.02 53 -72 53 C-68.80743632 37.03718162 -50.59486963 22.43041678 -37.46484375 13.55078125 C-28.53098042 7.7950339 -10.79100577 -3.59700192 0 0 Z " fill="#02BEF7" transform="translate(376,292)"/>
<path d="M0 0 C5.28 0 10.56 0 16 0 C17.63930258 6.47230619 18.35479787 12.39436539 18.3125 19.0625 C18.30621582 20.43341797 18.30621582 20.43341797 18.29980469 21.83203125 C17.96272804 42.37219145 11.23557259 61.35997065 1 79 C0.67 79 0.34 79 0 79 C0.0707373 78.04689941 0.14147461 77.09379883 0.21435547 76.11181641 C1.0130522 64.55769797 1.15430973 53.03987103 1.13037109 41.4609375 C1.12499538 38.37234621 1.13035961 35.2838995 1.13671875 32.1953125 C1.13995778 21.40998111 0.87621398 10.75100649 0 0 Z " fill="#01BEF9" transform="translate(453,360)"/>
<path d="M0 0 C0.66 0.33 1.32 0.66 2 1 C-3.39638935 15.48869808 -9.34279505 30.67139753 -24 38 C-29.54866959 38.8286293 -33.94101566 38.51275929 -38.75 35.5 C-43.01869775 32.32311837 -46.23779736 28.53867807 -49 24 C-49 23.67 -49 23.34 -49 23 C-48.1028125 22.79246094 -47.205625 22.58492188 -46.28125 22.37109375 C-29.30107215 18.17867381 -13.58058333 11.19715372 0 0 Z " fill="#07A8F0" transform="translate(429,466)"/>
<path d="M0 0 C3.63 0.66 7.26 1.32 11 2 C10.34 2.66 9.68 3.32 9 4 C10.34191406 5.25490234 10.34191406 5.25490234 11.7109375 6.53515625 C25.66470665 19.85580725 36.64739076 35.26586766 42 54 C36.72 54 31.44 54 26 54 C25.67128906 52.77667969 25.34257812 51.55335938 25.00390625 50.29296875 C20.11809243 32.73847336 13.6163049 17.14585967 2 3 C1.34 2.01 0.68 1.02 0 0 Z " fill="#01BFF9" transform="translate(423,290)"/>
<path d="M0 0 C6 1 6 1 8.55859375 1.54296875 C11.47209024 1.92989167 14.0130726 2.00522769 16.93359375 1.9296875 C31.39177781 1.68061082 31.39177781 1.68061082 35.71875 5.23046875 C37.45045724 8.08385 38.72521858 10.91927825 40 14 C41.09538745 15.59826988 42.23775407 17.16600403 43.4375 18.6875 C43.93121094 19.33074219 44.42492187 19.97398437 44.93359375 20.63671875 C45.28550781 21.08660156 45.63742187 21.53648437 46 22 C30.28214367 20.58715898 14.41575775 12.49440298 2 3 C1.34 2.01 0.68 1.02 0 0 Z " fill="#07AAF1" transform="translate(331,488)"/>
</svg>
