<?xml version="1.0" encoding="UTF-8"?>
<svg version="1.1" xmlns="http://www.w3.org/2000/svg" width="512" height="512">
<path d="M0 0 C0.84691406 0.70898438 1.69382812 1.41796875 2.56640625 2.1484375 C23.09681997 20.01459906 37.87661575 45.00761735 39.90234375 72.640625 C39.93457031 73.41921875 39.96679688 74.1978125 40 75 C40.09474609 76.57007813 40.09474609 76.57007813 40.19140625 78.171875 C41.75730106 125.2497448 12.71907876 175.61473776 -7.5078125 216.93017578 C-8.90128744 219.79692216 -10.26958683 222.67369187 -11.625 225.55859375 C-23.06347246 249.88610126 -35.49649762 273.75910137 -48.50537109 297.28125 C-51.98271721 303.60658916 -55.39267243 309.96903223 -58.8137207 316.32495117 C-59.331521 317.28377197 -59.84932129 318.24259277 -60.3828125 319.23046875 C-60.84059082 320.08020264 -61.29836914 320.92993652 -61.77001953 321.80541992 C-62.76689169 323.58407888 -63.86898524 325.30347786 -65 327 C-68.73344976 325.75551675 -68.92460205 324.82873846 -70.71484375 321.42578125 C-71.22950195 320.460354 -71.74416016 319.49492676 -72.27441406 318.50024414 C-73.0976416 316.92231079 -73.0976416 316.92231079 -73.9375 315.3125 C-75.11793671 313.08824816 -76.29893732 310.86429551 -77.48046875 308.640625 C-78.0739209 307.51720703 -78.66737305 306.39378906 -79.27880859 305.23632812 C-81.25975317 301.51159036 -83.29191693 297.81753338 -85.33422852 294.1262207 C-93.48587171 279.36498511 -101.1659925 264.35863718 -108.81268311 249.33172607 C-110.02571499 246.94949932 -111.24149889 244.5686906 -112.45751953 242.18798828 C-124.08684644 219.39462088 -135.07927278 196.41588923 -145.1809082 172.90380859 C-145.94703712 171.1231012 -146.71844131 169.34466602 -147.49023438 167.56640625 C-157.0951845 145.39692079 -166.08559132 122.72111694 -171 99 C-171.29970703 97.56914062 -171.29970703 97.56914062 -171.60546875 96.109375 C-174.9622027 69.65432328 -168.26048674 42.88232807 -152.9453125 21.07421875 C-150.73063605 18.27139562 -148.41908897 15.62846915 -146 13 C-145.52965332 12.48195801 -145.05930664 11.96391602 -144.57470703 11.43017578 C-108.01033198 -28.44854858 -42.3772656 -35.57767193 0 0 Z M-116.12890625 45.5078125 C-126.97475015 60.07825506 -129.40832197 76.34260374 -128 94 C-127.14882869 98.60092599 -125.83959257 102.70560686 -124 107 C-123.63777344 107.8765625 -123.27554688 108.753125 -122.90234375 109.65625 C-116.0131622 124.78909624 -103.07396211 136.42736675 -87.5859375 142.29296875 C-70.23376496 147.81774093 -53.52245278 147.08890633 -37 139 C-33.14509338 136.54864977 -29.55462815 133.8653493 -26 131 C-25.1646875 130.37351562 -24.329375 129.74703125 -23.46875 129.1015625 C-12.33553202 119.62423454 -5.1869993 104.52001648 -3.81542969 90.05322266 C-2.60460904 71.63394019 -7.89997618 55.55818878 -19.8203125 41.34375 C-32.10354637 28.13597165 -48.46489742 21.26918715 -66.375 20.5625 C-86.46373271 21.14903234 -103.26994795 30.36019557 -116.12890625 45.5078125 Z " fill="#E20019" transform="translate(464,185)"/>
<path d="M0 0 C55.77 0 111.54 0 169 0 C166.525 2.475 166.525 2.475 164 5 C163.42636719 5.58523437 162.85273438 6.17046875 162.26171875 6.7734375 C158.69747748 10.39958867 155.00779101 13.80674929 151.15625 17.125 C148.80037042 19.17359094 146.4949254 21.27203002 144.1875 23.375 C140.74621795 26.48528851 137.23678702 29.46478312 133.625 32.375 C127.50421169 37.32241831 121.74962205 42.63167924 116 48 C119.10974281 51.89969536 122.10958568 55.10506154 126.0625 58.1875 C130.19399564 61.48715088 134.13707874 64.89665501 138 68.5 C142.57556664 72.7590967 147.30880823 76.73939177 152.18359375 80.65625 C155.95233042 83.79250798 159.54262704 87.10446595 163.1171875 90.45898438 C165.839287 93.03110339 165.839287 93.03110339 169 95 C169 95.66 169 96.32 169 97 C124.78 97 80.56 97 35 97 C35.33 133.3 35.66 169.6 36 207 C39.63 208.98 43.26 210.96 47 213 C56.93209614 220.62918784 63.81062719 231.646099 66 244 C67.5525727 258.39784912 64.99824896 271.40383139 56 283 C55.2575 284.03125 54.515 285.0625 53.75 286.125 C44.71493415 295.57075066 33.17843849 300.95391181 20.12524414 301.29248047 C5.68394665 301.42462938 -6.55883984 297.29321106 -17.25 287.25 C-27.02183921 276.88592811 -31.37040046 264.3404301 -31.21484375 250.25390625 C-30.28795132 236.21569909 -24.298683 224.46152012 -14 215 C-4.6332737 208 -4.6332737 208 0 208 C0 139.36 0 70.72 0 0 Z M1.625 240.5625 C-2.28625784 246.42938676 -2.62213745 251.00350341 -2 258 C-0.19677612 263.86047761 4.09196571 267.54619809 9 271 C14.07490873 273.17496088 18.68958854 273.5404247 24 272 C30.30405581 269.29159084 34.27567883 265.29049266 37 259 C38.91863608 252.97000089 37.79030525 247.59130132 35 242 C31.02600909 237.31272867 26.86069935 233.43658959 20.58203125 232.7265625 C12.15183901 232.41741582 7.34699227 234.3887715 1.625 240.5625 Z " fill="#8F0F1D" transform="translate(39,0)"/>
<path d="M0 0 C44.55 0 89.1 0 135 0 C132.525 2.475 132.525 2.475 130 5 C129.42636719 5.58523437 128.85273438 6.17046875 128.26171875 6.7734375 C124.69747748 10.39958867 121.00779101 13.80674929 117.15625 17.125 C114.80037042 19.17359094 112.4949254 21.27203002 110.1875 23.375 C106.74621795 26.48528851 103.23678702 29.46478312 99.625 32.375 C93.50421169 37.32241831 87.74962205 42.63167924 82 48 C85.10974281 51.89969536 88.10958568 55.10506154 92.0625 58.1875 C96.19399564 61.48715088 100.13707874 64.89665501 104 68.5 C108.57556664 72.7590967 113.30880823 76.73939177 118.18359375 80.65625 C121.95233042 83.79250798 125.54262704 87.10446595 129.1171875 90.45898438 C131.839287 93.03110339 131.839287 93.03110339 135 95 C135 95.66 135 96.32 135 97 C90.45 97 45.9 97 0 97 C0 64.99 0 32.98 0 0 Z " fill="#E10019" transform="translate(73,0)"/>
<path d="M0 0 C7.15642629 4.90726374 14.31395182 10.93676961 18 19 C16.69887007 22.90338978 15.32851319 23.21180086 11.7578125 25.13671875 C10.69175781 25.71357422 9.62570313 26.29042969 8.52734375 26.88476562 C6.84318359 27.77711914 6.84318359 27.77711914 5.125 28.6875 C4.00996094 29.29400391 2.89492187 29.90050781 1.74609375 30.52539062 C-6.59912823 35 -6.59912823 35 -10 35 C-11.28125 33.5390625 -11.28125 33.5390625 -12.5 31.625 C-14.25874134 28.88542214 -15.17284998 27.88476668 -18 26 C-16.68908824 22.37540892 -15.11048244 19.51418814 -12.8125 16.42578125 C-11.88824219 15.17764648 -11.88824219 15.17764648 -10.9453125 13.90429688 C-10.30335938 13.04900391 -9.66140625 12.19371094 -9 11.3125 C-8.35804688 10.44560547 -7.71609375 9.57871094 -7.0546875 8.68554688 C-2.31577698 2.31577698 -2.31577698 2.31577698 0 0 Z " fill="#656565" transform="translate(240,247)"/>
<path d="M0 0 C4.50727647 0.60266785 7.8587963 2.36599794 11.8125 4.5625 C12.7087207 5.0565332 12.7087207 5.0565332 13.62304688 5.56054688 C15.08533998 6.36773267 16.5431399 7.18304917 18 8 C14.17012594 17.4146472 10.31472543 26.79392685 6 36 C1.54737725 35.36391104 -2.20024663 33.67487707 -6.1875 31.6875 C-6.81591797 31.39166016 -7.44433594 31.09582031 -8.09179688 30.79101562 C-10.63563105 29.53134159 -12.65221871 28.47953201 -14.33789062 26.15527344 C-15 24 -15 24 -14.1730957 21.88110352 C-13.43192505 20.76626587 -13.43192505 20.76626587 -12.67578125 19.62890625 C-12.14146484 18.80712891 -11.60714844 17.98535156 -11.05664062 17.13867188 C-10.48107422 16.28853516 -9.90550781 15.43839844 -9.3125 14.5625 C-8.20427334 12.87640312 -7.09619606 11.19020805 -5.98828125 9.50390625 C-5.46572754 8.72031738 -4.94317383 7.93672852 -4.40478516 7.12939453 C-2.863993 4.79383853 -1.40580418 2.41917539 0 0 Z " fill="#656565" transform="translate(152,443)"/>
<path d="M0 0 C6.55146797 0.77993666 12.82024625 2.76095879 19 5 C18.36617071 11.7394507 16.77702547 17.99550621 14.9375 24.5 C14.65583984 25.51320313 14.37417969 26.52640625 14.08398438 27.5703125 C13.39434817 30.04832734 12.69958811 32.52478 12 35 C6.73378394 34.40421223 2.05591981 33.18691204 -2.9375 31.4375 C-3.62134766 31.20353516 -4.30519531 30.96957031 -5.00976562 30.72851562 C-6.67508501 30.15788171 -8.33782493 29.57972902 -10 29 C-8.740482 25.0294255 -7.47697782 21.06014909 -6.2097168 17.09204102 C-5.77892229 15.74115656 -5.34923099 14.38991979 -4.9206543 13.03833008 C-4.30545141 11.09884076 -3.68632916 9.16064126 -3.06640625 7.22265625 C-2.69459229 6.05484619 -2.32277832 4.88703613 -1.93969727 3.68383789 C-1 1 -1 1 0 0 Z " fill="#656565" transform="translate(186,458)"/>
<path d="M0 0 C8.38156489 0.38624723 16.01265489 2.5255343 24 5 C22.25184112 11.96196607 20.16274088 18.80318253 17.9375 25.625 C17.6801709 26.43114746 17.4228418 27.23729492 17.15771484 28.06787109 C16.49694845 30.06554687 15.75491229 32.03596635 15 34 C11.67429578 35.66285211 8.31639055 33.98079852 4.875 33.0625 C4.12089844 32.86720703 3.36679688 32.67191406 2.58984375 32.47070312 C0.72491694 31.98676642 -1.13776459 31.49419231 -3 31 C-2.47932209 20.57273982 -1.528829 10.33072801 0 0 Z " fill="#656565" transform="translate(195,231)"/>
<path d="M0 0 C15.75 1.125 15.75 1.125 21 2 C20.69097798 5.85445371 20.37715758 9.70850258 20.0625 13.5625 C19.97548828 14.64853516 19.88847656 15.73457031 19.79882812 16.85351562 C19.35442934 22.26859714 18.85462383 27.6335783 18 33 C15.45805839 32.85811015 12.91652007 32.71160845 10.375 32.5625 C9.66214844 32.52318359 8.94929688 32.48386719 8.21484375 32.44335938 C7.51230469 32.40146484 6.80976563 32.35957031 6.0859375 32.31640625 C5.4470459 32.27974854 4.8081543 32.24309082 4.14990234 32.20532227 C1.41615765 31.94424127 -1.29118137 31.45146977 -4 31 C-2.68 20.77 -1.36 10.54 0 0 Z " fill="#656565" transform="translate(261,474)"/>
<path d="M0 0 C2.5447308 0.96233484 3.44209585 2.3195874 5.00366211 4.52294922 C5.50124023 5.21001953 5.99881836 5.89708984 6.51147461 6.60498047 C7.79992282 8.58919072 8.8399522 10.5883865 9.87866211 12.71044922 C7.29636812 15.46142676 4.7126438 18.21105694 2.12866211 20.96044922 C1.39905273 21.73775391 0.66944336 22.51505859 -0.08227539 23.31591797 C-0.79125977 24.07001953 -1.50024414 24.82412109 -2.23071289 25.60107422 C-2.88007812 26.29233398 -3.52944336 26.98359375 -4.19848633 27.69580078 C-6.14243767 29.73255631 -8.12274437 31.72740896 -10.12133789 33.71044922 C-17.90290316 30.50939623 -23.4710307 22.0110636 -27.12133789 14.71044922 C-21.53762286 10.75531774 -15.72509345 7.20284738 -9.80883789 3.77294922 C-8.76856445 3.15238647 -8.76856445 3.15238647 -7.70727539 2.51928711 C-2.6594452 -0.36299943 -2.6594452 -0.36299943 0 0 Z " fill="#656565" transform="translate(130.121337890625,421.28955078125)"/>
<path d="M0 0 C8.8638469 5.04882122 17.45894432 10.42809829 26 16 C22.72400666 24.68723233 16.79198517 29.27610899 9 34 C7.3496103 34.70600004 5.6866288 35.38558522 4 36 C-0.51209236 27.0765816 -4.96636417 18.15325054 -9 9 C-6 6 -3 3 0 0 Z " fill="#656565" transform="translate(231,323)"/>
<path d="M0 0 C6.93 0.33 13.86 0.66 21 1 C20.88033815 5.25436081 20.75779726 9.50842705 20.62768555 13.76245117 C20.5842837 15.2106424 20.54261256 16.65888654 20.50268555 18.10717773 C20.44510938 20.18489559 20.38137972 22.26234573 20.31640625 24.33984375 C20.27974854 25.59144287 20.24309082 26.84304199 20.20532227 28.13256836 C20 31 20 31 19 32 C11.96303951 32.43422261 4.98392956 31.8193149 -2 31 C-1.03644647 10.06833713 -1.03644647 10.06833713 0 0 Z " fill="#666666" transform="translate(300,478)"/>
<path d="M0 0 C6.7857936 0.54863863 13.35009036 1.54267938 20 3 C18.83100289 13.46596237 17.21936179 23.70216131 15 34 C0.21867882 32.07289294 0.21867882 32.07289294 -6 30 C-5.37879271 23.57438707 -4.36523054 17.36927151 -3 11.0625 C-2.82210937 10.21365234 -2.64421875 9.36480469 -2.4609375 8.49023438 C-1.13455704 2.26911408 -1.13455704 2.26911408 0 0 Z " fill="#656565" transform="translate(223,468)"/>
<path d="M0 0 C1.32 9.9 2.64 19.8 4 30 C-6.125 32.25 -6.125 32.25 -11.0625 32.625 C-12.00222656 32.69976562 -12.94195312 32.77453125 -13.91015625 32.8515625 C-14.59980469 32.90054688 -15.28945312 32.94953125 -16 33 C-18.02776562 27.54695462 -19.06727031 22.01248777 -20.125 16.3125 C-20.30675781 15.36310547 -20.48851563 14.41371094 -20.67578125 13.43554688 C-22 6.40125705 -22 6.40125705 -22 3 C-14.38322105 1.03014337 -7.99180008 0 0 0 Z " fill="#656565" transform="translate(133,233)"/>
<path d="M0 0 C0.93714844 -0.00257813 1.87429687 -0.00515625 2.83984375 -0.0078125 C5.0625 0.125 5.0625 0.125 6.0625 1.125 C6.3604439 2.75649067 6.60114977 4.39852446 6.81640625 6.04296875 C7.01459961 7.55407227 7.01459961 7.55407227 7.21679688 9.09570312 C7.35150391 10.15724609 7.48621094 11.21878906 7.625 12.3125 C7.76357422 13.35470703 7.90214844 14.39691406 8.04492188 15.47070312 C8.67870898 20.38177268 9.25968809 25.16100414 9.0625 30.125 C6.71311112 31.29969444 5.11176795 31.32534889 2.4921875 31.44140625 C1.59628906 31.48330078 0.70039063 31.52519531 -0.22265625 31.56835938 C-1.62837891 31.62733398 -1.62837891 31.62733398 -3.0625 31.6875 C-4.00738281 31.73068359 -4.95226562 31.77386719 -5.92578125 31.81835938 C-8.26287092 31.92459072 -10.6000683 32.02663176 -12.9375 32.125 C-14.11885474 25.64150193 -14.05072974 19.26285493 -14 12.6875 C-13.99548828 11.57439453 -13.99097656 10.46128906 -13.98632812 9.31445312 C-13.97461193 6.58457899 -13.95820699 3.85481826 -13.9375 1.125 C-9.25741598 0.49024157 -4.73100841 -0.01327071 0 0 Z " fill="#656565" transform="translate(202.9375,334.875)"/>
<path d="M0 0 C1.86183972 2.79275958 3.32742895 5.5413199 4.8203125 8.54296875 C5.62275391 10.15268555 5.62275391 10.15268555 6.44140625 11.79492188 C6.99699219 12.91447266 7.55257812 14.03402344 8.125 15.1875 C8.68832031 16.31865234 9.25164062 17.44980469 9.83203125 18.61523438 C11.22315317 21.40926738 12.61239981 24.20421677 14 27 C10.82734428 30.26330303 7.57512495 33.18796895 4 36 C0.19829416 33.76664287 -3.5894278 31.51057866 -7.375 29.25 C-8.45523438 28.61578125 -9.53546875 27.9815625 -10.6484375 27.328125 C-11.6796875 26.709375 -12.7109375 26.090625 -13.7734375 25.453125 C-14.72653809 24.88754883 -15.67963867 24.32197266 -16.66162109 23.73925781 C-19.05771604 21.95707151 -19.95912502 20.75805453 -21 18 C-14.77570309 10.70950408 -8.74496439 4.16978435 0 0 Z " fill="#656565" transform="translate(124,344)"/>
<path d="M0 0 C7.59 0 15.18 0 23 0 C23.07452557 10.43357948 23.07896605 20.61495173 22 31 C15.73 31 9.46 31 3 31 C1.58880978 28.17761957 1.67013401 25.60872143 1.46484375 22.4609375 C1.37783203 21.15898437 1.29082031 19.85703125 1.20117188 18.515625 C1.11318888 17.13542255 1.02529947 15.75521413 0.9375 14.375 C0.84609599 12.98695324 0.75430391 11.59893198 0.66210938 10.2109375 C0.43757981 6.80754195 0.21830104 3.40380074 0 0 Z " fill="#656565" transform="translate(152,230)"/>
<path d="M0 0 C10.41872309 0.56883833 20.65626322 1.6269376 31 3 C31 8.61 31 14.22 31 20 C27.68831159 20.65024019 24.37574778 21.29529436 21.0625 21.9375 C20.13630859 22.11990234 19.21011719 22.30230469 18.25585938 22.49023438 C12.51139395 23.59881542 6.82332262 24.43259933 1 25 C-0.27861615 22.44276771 -0.11336609 20.63262898 -0.09765625 17.7734375 C-0.09443359 16.7421875 -0.09121094 15.7109375 -0.08789062 14.6484375 C-0.07951172 13.56820313 -0.07113281 12.48796875 -0.0625 11.375 C-0.05798828 10.28703125 -0.05347656 9.1990625 -0.04882812 8.078125 C-0.03701776 5.38536211 -0.02054778 2.69270812 0 0 Z " fill="#656565" transform="translate(94,388)"/>
<path d="M0 0 C0.495 15.345 0.495 15.345 1 31 C-10.25 32.125 -10.25 32.125 -14.625 32.0625 C-15.88183594 32.04896484 -15.88183594 32.04896484 -17.1640625 32.03515625 C-17.76992187 32.02355469 -18.37578125 32.01195312 -19 32 C-19.67020269 27.56302649 -20.33555866 23.12533963 -21 18.6875 C-21.19078125 17.42486328 -21.3815625 16.16222656 -21.578125 14.86132812 C-21.75859375 13.65283203 -21.9390625 12.44433594 -22.125 11.19921875 C-22.29257813 10.08377686 -22.46015625 8.96833496 -22.6328125 7.8190918 C-23 5 -23 5 -23 2 C-20.43706703 0.71853351 -18.29546914 0.66745154 -15.4375 0.4375 C-13.95056641 0.31181641 -13.95056641 0.31181641 -12.43359375 0.18359375 C-8.29452333 -0.03772173 -4.14498305 0 0 0 Z " fill="#666666" transform="translate(170,336)"/>
<path d="M0 0 C0 8.25 0 16.5 0 25 C-7.54141589 24.37154868 -14.82346294 23.679217 -22.25 22.4375 C-23.10207031 22.29892578 -23.95414063 22.16035156 -24.83203125 22.01757812 C-26.888696 21.68250353 -28.9444546 21.34187418 -31 21 C-31 15.39 -31 9.78 -31 4 C-27.83351767 3.51958904 -24.66682577 3.04063732 -21.5 2.5625 C-20.613125 2.42779297 -19.72625 2.29308594 -18.8125 2.15429688 C-4.52057927 0 -4.52057927 0 0 0 Z " fill="#666666" transform="translate(266,291)"/>
<path d="M0 0 C6.6 0 13.2 0 20 0 C20 10.23 20 20.46 20 31 C13.07 31 6.14 31 -1 31 C-1.02702482 26.95828833 -1.0468516 22.91675829 -1.0625 18.875 C-1.07087891 17.73289062 -1.07925781 16.59078125 -1.08789062 15.4140625 C-1.09111328 14.30546875 -1.09433594 13.196875 -1.09765625 12.0546875 C-1.10289307 11.03874512 -1.10812988 10.02280273 -1.11352539 8.97607422 C-1 6 -1 6 0 0 Z " fill="#666666" transform="translate(340,480)"/>
</svg>
