<?xml version="1.0" encoding="UTF-8"?>
<svg version="1.1" xmlns="http://www.w3.org/2000/svg" width="512" height="512">
<path d="M0 0 C0.8116604 -0.00367669 1.6233208 -0.00735338 2.45957696 -0.01114148 C5.17743398 -0.02214774 7.89525272 -0.02601709 10.61312866 -0.02983093 C12.56330994 -0.03609831 14.51349003 -0.04274535 16.46366882 -0.04974365 C22.87073946 -0.07076856 29.27781026 -0.08115033 35.68490601 -0.09111023 C37.89626452 -0.09515954 40.10762291 -0.09927652 42.31898117 -0.10346031 C52.71847193 -0.12251513 63.11795561 -0.13674085 73.51746047 -0.14507228 C85.48621136 -0.15482085 97.45477615 -0.18107681 109.42346156 -0.22157317 C118.69427247 -0.25185379 127.96503043 -0.26655276 137.23588979 -0.26985329 C142.76248334 -0.27219181 148.28887816 -0.28099367 153.81541824 -0.30631447 C159.02756596 -0.32980741 164.23938714 -0.33374422 169.45157433 -0.32355309 C171.34965166 -0.32306259 173.24774623 -0.32923669 175.14577293 -0.34310913 C207.4778345 -0.56591326 235.62965974 10.57775277 259.08334351 32.89717102 C274.73663727 49.18471494 285.6085176 70.7474852 288.89584351 93.14717102 C289.00670288 93.86131165 289.11756226 94.57545227 289.23178101 95.31123352 C289.76392498 99.49647397 289.90506721 103.41455366 289.53256226 107.61592102 C288.65095169 117.0144126 288.65095169 117.0144126 292.21224976 125.39717102 C294.72830275 127.77874965 297.49728012 129.81929889 300.2840271 131.87129211 C319.27337435 146.90284751 328.94405053 174.90155932 331.68637085 198.02168274 C335.40850263 235.78960733 322.27386282 278.37494894 305.89584351 312.14717102 C305.41462036 313.14055481 305.41462036 313.14055481 304.92367554 314.15400696 C298.14022013 327.9414059 289.53093652 340.04735126 278.89584351 351.14717102 C277.66801147 352.48715149 277.66801147 352.48715149 276.41537476 353.85420227 C260.2840058 370.89102473 236.27203348 383.43006351 212.47888184 384.26742554 C210.60690628 384.26409462 210.60690628 384.26409462 208.69711304 384.26069641 C208.00373337 384.26084244 207.3103537 384.26098846 206.59596252 384.26113892 C204.32349425 384.26044698 202.05110982 384.25268852 199.77865601 384.24482727 C198.19539434 384.24296053 196.61213208 384.24153784 195.02886963 384.24053955 C190.87621445 384.23673451 186.72359464 384.22692153 182.57095337 384.21583557 C178.32769245 384.20557805 174.08442577 384.20103265 169.84115601 384.19599915 C161.52603567 384.18529735 153.210944 384.16824526 144.89584351 384.14717102 C144.77731522 385.26962723 144.65878693 386.39208344 144.53666687 387.54855347 C143.93017653 392.3725932 142.82509135 397.01401484 141.64266968 401.72505188 C141.41486313 402.64810623 141.18705658 403.57116058 140.9523468 404.52218628 C140.20273194 407.55336776 139.44616492 410.58275805 138.68881226 413.61201477 C138.16156653 415.73132126 137.6344951 417.85067112 137.10758972 419.97006226 C136.00374443 424.40484176 134.8961548 428.83866664 133.78622437 433.27192688 C132.36860596 438.93640442 130.96283353 444.60374708 129.56019115 450.27194881 C128.47548394 454.64784861 127.38319497 459.02182988 126.28878212 463.39531136 C125.76749631 465.48331695 125.24883034 467.57197852 124.73290062 469.66131401 C124.00887751 472.58954252 123.27432783 475.51494231 122.53720093 478.43989563 C122.32873535 479.29264069 122.12026978 480.14538574 121.90548706 481.02397156 C118.91632996 492.7570836 114.58503237 502.15333572 104.27474976 508.88545227 C98.92717851 511.72168464 94.01274515 512.44532794 88.02963257 512.43769836 C86.88198425 512.4477742 86.88198425 512.4477742 85.71115112 512.45805359 C83.19452322 512.47697134 80.67816299 512.48095489 78.16146851 512.48310852 C76.40037937 512.48954177 74.63929128 512.49627052 72.87820435 512.50328064 C69.18972295 512.51523857 65.5013351 512.51896309 61.81283569 512.51777649 C57.10777349 512.51757361 52.40331742 512.54484965 47.69839859 512.57932091 C44.06075334 512.6016627 40.42325216 512.60561178 36.78554535 512.60455704 C35.05215114 512.60690305 33.31875236 512.6156697 31.58542633 512.63122177 C19.40980869 512.7302221 9.03465512 512.07137176 -0.27993774 503.34248352 C-6.92034581 495.35124298 -9.64980655 486.3774256 -9.10415649 476.14717102 C-8.54997752 471.46265882 -7.83247048 466.80739635 -7.10415649 462.14717102 C-6.91337524 460.89549133 -6.72259399 459.64381165 -6.52603149 458.35420227 C-6.05735041 455.28434115 -5.58325201 452.21542104 -5.10415649 449.14717102 C-6.04217102 449.14796661 -6.98018555 449.14876221 -7.94662476 449.14958191 C-16.83169314 449.15320056 -25.71618624 449.1251423 -34.6010704 449.06689262 C-39.16782878 449.03794856 -43.73407816 449.0197646 -48.30093384 449.02705383 C-52.71689729 449.03369161 -57.13185889 449.01091225 -61.54761505 448.96861649 C-63.22347695 448.95756377 -64.89944144 448.95671358 -66.57530975 448.96674728 C-78.12823564 449.0269919 -87.44889957 447.97141017 -96.55917358 439.998703 C-102.24059357 434.33381603 -105.66164754 427.53519663 -106.32200319 419.49465168 C-106.33027072 411.24260996 -105.32461987 403.27523073 -104.07429504 395.1313324 C-103.85294786 393.6461363 -103.63237134 392.16082517 -103.41249162 390.67541111 C-102.81047966 386.62377475 -102.19759822 382.57384885 -101.58281219 378.52413392 C-100.91993544 374.14462131 -100.26727091 369.76358533 -99.61329651 365.38273621 C-98.3322092 356.81197972 -97.04175951 348.24265828 -95.74808975 339.67379297 C-94.24028353 329.68422516 -92.74173046 319.69327591 -91.24351601 309.70226584 C-88.56880627 291.86786682 -85.88560712 274.03475544 -83.19766235 256.2023468 C-80.59265182 238.9200977 -77.99379716 221.63693773 -75.40176392 204.35273743 C-75.16236159 202.7563623 -75.16236159 202.7563623 -74.91812285 201.12773718 C-74.75879101 200.0652828 -74.59945917 199.00282842 -74.4352991 197.90817845 C-71.48015545 178.20307457 -68.51921228 158.49884592 -65.55558684 138.79501603 C-64.50971502 131.84058857 -63.46554958 124.88590613 -62.4219265 117.9311409 C-61.14871721 109.44718506 -59.87215495 100.96374109 -58.5914919 92.4809071 C-57.93884319 88.15749226 -57.28753453 83.83388777 -56.64004517 79.50969696 C-56.04600347 75.54278969 -55.44783518 71.57652641 -54.84651438 67.61071621 C-54.63095365 66.18441415 -54.41682543 64.75789459 -54.20436659 63.33112718 C-50.91289488 41.24529591 -47.09808932 22.30754363 -28.16665649 8.27217102 C-19.23589575 2.3739739 -10.62703042 -0.00259653 0 0 Z " fill="#273593" transform="translate(143.10415649414063,-0.1471710205078125)"/>
<path d="M0 0 C17.90137363 8.21961526 30.40756684 30.93128638 37.37109375 48.44921875 C53.15529712 92.52321096 39.19902136 144.73706509 20.02734375 185.7890625 C19.35546184 187.194579 18.67977069 188.59828186 18 190 C17.51877686 190.99338379 17.51877686 190.99338379 17.02783203 192.00683594 C10.24437663 205.79423488 1.63509301 217.90018024 -9 229 C-10.22783203 230.33998047 -10.22783203 230.33998047 -11.48046875 231.70703125 C-27.61183771 248.74385371 -51.62381002 261.28289249 -75.41696167 262.12025452 C-77.28893723 262.1169236 -77.28893723 262.1169236 -79.19873047 262.11352539 C-79.89211014 262.11367142 -80.58548981 262.11381744 -81.29988098 262.1139679 C-83.57234926 262.11327596 -85.84473369 262.1055175 -88.1171875 262.09765625 C-89.70044917 262.09578951 -91.28371142 262.09436682 -92.86697388 262.09336853 C-97.01962906 262.08956349 -101.17224886 262.07975051 -105.32489014 262.06866455 C-109.56815106 262.05840703 -113.81141773 262.05386163 -118.0546875 262.04882812 C-126.36980784 262.03812633 -134.68489951 262.02107424 -143 262 C-143.11852829 263.12245621 -143.23705658 264.24491241 -143.35917664 265.40138245 C-143.96566697 270.22542218 -145.07075215 274.86684382 -146.25317383 279.57788086 C-146.48098038 280.50093521 -146.70878693 281.42398956 -146.9434967 282.37501526 C-147.69311157 285.40619674 -148.44967859 288.43558703 -149.20703125 291.46484375 C-149.73427698 293.58415024 -150.2613484 295.7035001 -150.78825378 297.82289124 C-151.89209907 302.25767074 -152.9996887 306.69149562 -154.10961914 311.12475586 C-155.52723755 316.7892334 -156.93300998 322.45657606 -158.33565235 328.12477779 C-159.42035957 332.50067759 -160.51264854 336.87465886 -161.60706139 341.24814034 C-162.1283472 343.33614593 -162.64701317 345.4248075 -163.16294289 347.51414299 C-163.886966 350.4423715 -164.62151567 353.36777129 -165.35864258 356.29272461 C-165.56710815 357.14546967 -165.77557373 357.99821472 -165.99035645 358.87680054 C-168.97951355 370.60991258 -173.31081114 380.0061647 -183.62109375 386.73828125 C-188.96866499 389.57451362 -193.88309836 390.29815692 -199.86621094 390.29052734 C-200.63130981 390.29724457 -201.39640869 390.30396179 -202.18469238 390.31088257 C-204.70132029 390.32980032 -207.21768051 390.33378387 -209.734375 390.3359375 C-211.49546414 390.34237075 -213.25655222 390.3490995 -215.01763916 390.35610962 C-218.70612056 390.36806755 -222.39450841 390.37179207 -226.08300781 390.37060547 C-230.78807001 390.37040259 -235.49252608 390.39767863 -240.19744492 390.43214989 C-243.83509016 390.45449168 -247.47259135 390.45844076 -251.11029816 390.45738602 C-252.84369236 390.45973203 -254.57709115 390.46849868 -256.31041718 390.48405075 C-268.48603481 390.58305108 -278.86118838 389.92420074 -288.17578125 381.1953125 C-294.77317951 373.25583108 -297.64021319 364.19323759 -297 354 C-296.46389073 349.33664309 -295.77306847 344.70209414 -295.0625 340.0625 C-294.88009766 338.81919922 -294.69769531 337.57589844 -294.50976562 336.29492188 C-293.13208353 327.13208353 -293.13208353 327.13208353 -292 326 C-288.90672978 325.79629684 -285.82123371 325.65389648 -282.72265625 325.5703125 C-278.34066615 325.36369607 -275.35606506 324.8919284 -272 322 C-268.69980812 315.63755045 -267.47733357 308.8326042 -266.01318359 301.86035156 C-265.72927369 300.53402123 -265.44472572 299.20782735 -265.15959167 297.88175964 C-264.39098367 294.29870778 -263.63113962 290.71384799 -262.87280607 287.12860966 C-262.076531 283.37192869 -261.27181651 279.61705679 -260.46792603 275.86199951 C-258.9478119 268.75546693 -257.43470853 261.64746199 -255.92438948 254.53884196 C-253.70546639 244.09632861 -251.47718255 233.65581202 -249.24744606 223.21560287 C-249.00218573 222.06721447 -249.00218573 222.06721447 -248.75197065 220.89562631 C-248.42601344 219.36942021 -248.1000345 217.84321876 -247.77403319 216.31702209 C-246.81942402 211.84671332 -245.86728104 207.37588818 -244.91726279 202.90460157 C-244.32709093 200.12801785 -243.73560795 197.35171445 -243.1438694 194.57546425 C-242.73854753 192.67148827 -242.33498663 190.76713768 -241.93147278 188.86277771 C-241.69042313 187.73285904 -241.44937347 186.60294037 -241.20101929 185.43878174 C-240.99198156 184.45510242 -240.78294384 183.47142311 -240.56757164 182.45793533 C-240 180 -240 180 -239 177 C-237.2504451 176.99120064 -237.2504451 176.99120064 -235.46554565 176.98222351 C-224.37629665 176.92456081 -213.28723562 176.85158011 -202.19817924 176.76428509 C-196.49964739 176.71989907 -190.80118185 176.68057664 -185.10253906 176.65356445 C-179.58453633 176.62720989 -174.06679333 176.58659122 -168.54895401 176.53681374 C-166.46269126 176.52035912 -164.37638381 176.50871372 -162.29006577 176.50238609 C-144.59185694 176.44337508 -125.9195451 175.99703834 -109.125 169.8125 C-108.27115723 169.51206787 -107.41731445 169.21163574 -106.53759766 168.90209961 C-89.30274226 162.64935713 -75.33536033 153.61285628 -62 141 C-61.12601563 140.20207031 -60.25203125 139.40414062 -59.3515625 138.58203125 C-46.89473158 126.78551944 -37.82562469 112.16503142 -30 97 C-29.63310059 96.29214355 -29.26620117 95.58428711 -28.88818359 94.85498047 C-19.8294024 77.14186301 -12.99648528 58.24733024 -8 39 C-7.57659646 37.42939714 -7.1520303 35.85910742 -6.7265625 34.2890625 C-3.65659111 22.89312463 -0.95359896 11.79451346 0 0 Z " fill="#03A8F3" transform="translate(431,122)"/>
</svg>
